<svg width="52" height="52" viewBox="0 0 52 52" fill="none" xmlns="http://www.w3.org/2000/svg">
<path d="M0 12C0 5.37258 5.37258 0 12 0H40C46.6274 0 52 5.37258 52 12V40C52 46.6274 46.6274 52 40 52H12C5.37258 52 0 46.6274 0 40V12Z" fill="url(#paint0_linear_594_3229)"/>
<path d="M26 7C30.2435 7 34.3131 8.66001 37.3137 11.6149C40.3143 14.5697 42 18.5773 42 22.7561C42 34.8049 31.6471 45 26 45C20.3529 45 10 34.8049 10 22.7561C10 18.5773 11.6857 14.5697 14.6863 11.6149C17.6869 8.66001 21.7565 7 26 7ZM26 10.7073C22.755 10.7073 19.6429 11.9767 17.3483 14.2363C15.0538 16.4959 13.7647 19.5606 13.7647 22.7561C13.7647 31.6425 21.6047 41.2927 26 41.2927C30.3953 41.2927 38.2353 31.6425 38.2353 22.7561C38.2353 19.5606 36.9462 16.4959 34.6517 14.2363C32.3571 11.9767 29.245 10.7073 26 10.7073ZM36.3529 23.6829C36.6541 23.6829 36.9534 23.6978 37.2471 23.7293C37.3805 24.9664 37.2311 26.2173 36.8101 27.3903C36.389 28.5633 35.7068 29.6286 34.8134 30.5084C33.9201 31.3881 32.8382 32.0599 31.6471 32.4745C30.456 32.8892 29.1857 33.0362 27.9294 32.9049C27.804 31.7417 27.9285 30.5656 28.2947 29.4528C28.6609 28.3401 29.2606 27.3156 30.055 26.446C30.8493 25.5763 31.8206 24.8809 32.9056 24.4049C33.9906 23.9289 35.1651 23.6829 36.3529 23.6829ZM15.6471 23.6829C16.8349 23.6829 18.0094 23.9289 19.0944 24.4049C20.1795 24.8809 21.1507 25.5763 21.945 26.446C22.7394 27.3156 23.3391 28.3401 23.7053 29.4528C24.0715 30.5656 24.196 31.7417 24.0706 32.9049C22.8143 33.0362 21.544 32.8892 20.3529 32.4745C19.1618 32.0599 18.0799 31.3881 17.1866 30.5084C16.2932 29.6286 15.611 28.5633 15.1899 27.3903C14.7689 26.2173 14.6195 24.9664 14.7529 23.7293C15.0447 23.6978 15.3459 23.6829 15.6471 23.6829Z" fill="#5ED5A8"/>
<defs>
<linearGradient id="paint0_linear_594_3229" x1="13.8667" y1="18.2" x2="87.9667" y2="92.3" gradientUnits="userSpaceOnUse">
<stop stop-color="#1B232A"/>
<stop offset="1" stop-color="#5ED5A8"/>
</linearGradient>
</defs>
</svg>
