<svg width="55" height="57" viewBox="0 0 55 57" fill="none" xmlns="http://www.w3.org/2000/svg">
<path d="M0 17C0 10.3726 5.37258 5 12 5H40C46.6274 5 52 10.3726 52 17V45C52 51.6274 46.6274 57 40 57H12C5.37258 57 0 51.6274 0 45V17Z" fill="url(#paint0_linear_591_3301)"/>
<g clip-path="url(#clip0_591_3301)">
<path d="M48.2577 18.5888L24.4813 42.3655C23.4066 43.4398 21.6646 43.4398 20.5903 42.3655L6.5987 28.3738C5.52439 27.2991 5.52439 25.5571 6.5987 24.4828L30.375 0.706119C31.4497 -0.368185 33.1917 -0.368185 34.266 0.706119L48.2577 14.6978C49.3324 15.7721 49.3324 17.5144 48.2577 18.5888V18.5888Z" fill="#5ED5A8"/>
<path d="M48.2574 14.6975L46.5115 12.9512C47.4683 13.908 47.3725 15.5546 46.2982 16.6289L22.5215 40.4057C21.4472 41.4803 19.8005 41.5757 18.8438 40.6189L20.59 42.3652C21.6643 43.4395 23.4063 43.4395 24.481 42.3652L48.2574 18.5884C49.3321 17.5141 49.3321 15.7718 48.2574 14.6975V14.6975Z" fill="#459D7C"/>
<path d="M11.1711 27.3954C10.9797 27.3954 10.7886 27.3222 10.6427 27.1763C10.3509 26.8845 10.3509 26.4117 10.6427 26.1199L22.2888 14.4738C22.5807 14.1819 23.0538 14.1819 23.3453 14.4738C23.6371 14.7656 23.6371 15.2387 23.3453 15.5302L11.6991 27.1767C11.5532 27.3222 11.3621 27.3954 11.1711 27.3954Z" fill="#1B232A"/>
<path d="M14.8723 31.0965C14.6808 31.0965 14.4898 31.0234 14.3439 30.8775C14.052 30.5856 14.052 30.1129 14.3439 29.8211L25.99 18.1749C26.2818 17.8831 26.755 17.8831 27.0464 18.1749C27.3382 18.4667 27.3382 18.9399 27.0464 19.2313L15.4003 30.8775C15.2544 31.0234 15.0633 31.0965 14.8723 31.0965Z" fill="#1B232A"/>
<path d="M29.9876 6.12543L27.6577 8.45497C26.7417 9.37091 26.7417 10.8557 27.6577 11.7717C28.5736 12.6876 30.0588 12.6876 30.9747 11.7717L33.3043 9.44212C34.2202 8.52618 34.2202 7.04137 33.3043 6.12543C32.3883 5.20949 30.9031 5.20949 29.9876 6.12543V6.12543Z" fill="#FFCD34"/>
<path d="M50.5035 25.6104H16.8783C15.3588 25.6104 14.127 26.8422 14.127 28.3617V48.149C14.127 49.6684 15.3588 50.9003 16.8783 50.9003H50.5035C52.0233 50.9003 53.2548 49.6684 53.2548 48.149V28.3617C53.2552 26.8422 52.0233 25.6104 50.5035 25.6104V25.6104Z" fill="#5ED5A8"/>
<path d="M50.5036 25.6104H48.041C49.5605 25.6104 50.7923 26.8422 50.7923 28.3617V48.149C50.7923 49.6684 49.5605 50.9003 48.041 50.9003H50.5036C52.0235 50.9003 53.255 49.6684 53.255 48.149V28.3617C53.2554 26.8422 52.0235 25.6104 50.5036 25.6104V25.6104Z" fill="#459D7C"/>
<path d="M14.127 31.8271H53.2552V36.5808H14.127V31.8271Z" fill="#1B232A"/>
<path d="M50.791 31.8271H53.2536V36.5808H50.791V31.8271Z" fill="#090C0E"/>
<path d="M43.6367 44.1761V47.108C43.6367 47.3348 43.8204 47.5185 44.0472 47.5185H48.7106C48.9374 47.5185 49.1211 47.3348 49.1211 47.108V44.1761C49.1211 43.9493 48.9374 43.7656 48.7106 43.7656H44.0472C43.8204 43.7656 43.6367 43.9493 43.6367 44.1761V44.1761Z" fill="#FFCD34"/>
<path d="M29.5762 44.1761V47.108C29.5762 47.3348 29.7602 47.5185 29.9867 47.5185H39.8504C40.0772 47.5185 40.2609 47.3348 40.2609 47.108V44.1761C40.2609 43.9493 40.0772 43.7656 39.8504 43.7656H29.9867C29.7602 43.7656 29.5762 43.9493 29.5762 44.1761V44.1761Z" fill="#FFCD34"/>
<path d="M25.5555 48.2656H20.6416C20.2288 48.2656 19.8945 47.931 19.8945 47.5186C19.8945 47.1057 20.2288 46.7715 20.6416 46.7715H25.5555C25.9684 46.7715 26.3026 47.1057 26.3026 47.5186C26.3026 47.931 25.9684 48.2656 25.5555 48.2656Z" fill="#1B232A"/>
</g>
<defs>
<linearGradient id="paint0_linear_591_3301" x1="13.8667" y1="23.2" x2="87.9667" y2="97.3" gradientUnits="userSpaceOnUse">
<stop stop-color="#1B232A"/>
<stop offset="1" stop-color="#5ED5A8"/>
</linearGradient>
<clipPath id="clip0_591_3301">
<rect width="51" height="51" fill="white" transform="translate(4)"/>
</clipPath>
</defs>
</svg>
