<svg width="25" height="25" viewBox="0 0 25 25" fill="none" xmlns="http://www.w3.org/2000/svg">
<path d="M23.6561 14.9141C22.0522 21.3476 15.5361 25.2628 9.10188 23.6585C2.67034 22.0546 -1.24494 15.5382 0.359653 9.10522C1.96284 2.67104 8.47891 -1.24454 14.9112 0.359351C21.3449 1.96324 25.26 8.48043 23.6559 14.9142L23.656 14.9141H23.6561Z" fill="#F7931A"/>
<path fill-rule="evenodd" clip-rule="evenodd" d="M17.3016 10.2979C17.5406 8.69972 16.3239 7.84066 14.6602 7.26758L15.1999 5.10276L13.8821 4.7744L13.3567 6.88222C13.0102 6.79582 12.6545 6.7144 12.3009 6.63369L12.8301 4.51196L11.5131 4.18359L10.9731 6.34771C10.6864 6.28244 10.4048 6.21793 10.1316 6.14995L10.1332 6.14314L8.3159 5.68934L7.96535 7.09683C7.96535 7.09683 8.94304 7.32094 8.92244 7.33474C9.45607 7.46792 9.55258 7.82118 9.53655 8.10117L8.92174 10.5674C8.95848 10.5767 9.00615 10.5902 9.05874 10.6114L9.02042 10.6018C8.98792 10.5937 8.95413 10.5852 8.91945 10.5769L8.05769 14.0318C7.99247 14.1939 7.82694 14.4372 7.45385 14.3448C7.46706 14.3639 6.49606 14.1058 6.49606 14.1058L5.8418 15.6142L7.55669 16.0417C7.74448 16.0888 7.93006 16.1372 8.11375 16.1851L8.11389 16.1851C8.24221 16.2186 8.36962 16.2518 8.49623 16.2842L7.95091 18.4738L9.26718 18.8022L9.80721 16.6358C10.1668 16.7334 10.5158 16.8234 10.8574 16.9083L10.3192 19.0645L11.637 19.3929L12.1823 17.2073C14.4294 17.6326 16.1191 17.4611 16.8303 15.4286C17.4033 13.7922 16.8017 12.8483 15.6195 12.2328C16.4806 12.0342 17.1292 11.4679 17.3021 10.298L17.3017 10.2977L17.3016 10.2979ZM14.2907 14.5198C13.9171 16.0212 11.5671 15.4005 10.4918 15.1165C10.3951 15.091 10.3087 15.0681 10.235 15.0498L10.9586 12.1489C11.0485 12.1714 11.1582 12.196 11.2826 12.2239L11.2827 12.2239C12.3948 12.4735 14.6736 12.9849 14.2908 14.5198H14.2907ZM11.5057 10.8776C12.4022 11.1168 14.3577 11.6387 14.6983 10.2741H14.6984C15.0461 8.87855 13.1457 8.4578 12.2175 8.2523C12.1131 8.22918 12.021 8.20878 11.9458 8.19003L11.2897 10.821C11.3516 10.8364 11.4243 10.8558 11.5057 10.8776Z" fill="white"/>
</svg>
