<svg width="52" height="46" viewBox="0 0 52 46" fill="none" xmlns="http://www.w3.org/2000/svg">
<g filter="url(#filter0_d_217_24784)">
<path d="M22.02 11.2266H20.98C19.39 11.2266 18.75 11.7846 18.75 13.1981V24.2465H24.25V13.1981C24.24 11.7846 23.6 11.2266 22.02 11.2266Z" fill="#3E474F"/>
<path d="M30.52 15.876H29.48C27.89 15.876 27.25 16.4433 27.25 17.8476V24.2459H32.75V17.8476C32.75 16.4433 32.1 15.876 30.52 15.876Z" fill="#5ED5A8"/>
<path d="M16.75 23.5576H35.25C35.66 23.5576 36 23.8738 36 24.2551C36 24.6364 35.66 24.9526 35.25 24.9526H16.75C16.34 24.9526 16 24.6364 16 24.2458C16 23.8552 16.34 23.5576 16.75 23.5576Z" fill="#3E474F"/>
</g>
<defs>
<filter id="filter0_d_217_24784" x="-2" y="-4.07031" width="56" height="54.3203" filterUnits="userSpaceOnUse" color-interpolation-filters="sRGB">
<feFlood flood-opacity="0" result="BackgroundImageFix"/>
<feColorMatrix in="SourceAlpha" type="matrix" values="0 0 0 0 0 0 0 0 0 0 0 0 0 0 0 0 0 0 127 0" result="hardAlpha"/>
<feOffset dy="5"/>
<feGaussianBlur stdDeviation="8"/>
<feComposite in2="hardAlpha" operator="out"/>
<feColorMatrix type="matrix" values="0 0 0 0 0.368627 0 0 0 0 0.835294 0 0 0 0 0.658824 0 0 0 0.25 0"/>
<feBlend mode="normal" in2="BackgroundImageFix" result="effect1_dropShadow_217_24784"/>
<feBlend mode="normal" in="SourceGraphic" in2="effect1_dropShadow_217_24784" result="shape"/>
</filter>
</defs>
</svg>
