<svg width="48" height="52" viewBox="0 0 48 52" fill="none" xmlns="http://www.w3.org/2000/svg">
<g filter="url(#filter0_d_217_24780)">
<path d="M24 11C21.38 11 19.25 13.13 19.25 15.75C19.25 18.32 21.26 20.4 23.88 20.49C23.96 20.48 24.04 20.48 24.1 20.49C24.12 20.49 24.13 20.49 24.15 20.49C24.16 20.49 24.16 20.49 24.17 20.49C26.73 20.4 28.74 18.32 28.75 15.75C28.75 13.13 26.62 11 24 11Z" fill="#3E474F"/>
<path fill-rule="evenodd" clip-rule="evenodd" d="M18.9297 23.1499C21.7397 21.2899 26.2897 21.2899 29.0797 23.1499C30.3397 23.9899 31.0297 25.1299 31.0397 26.3599C31.0397 27.5999 30.3397 28.7399 29.0797 29.5899C27.6797 30.5299 25.8397 30.9999 23.9997 30.9999C22.1597 30.9999 20.3197 30.5299 18.9197 29.5899C17.6597 28.7499 16.9597 27.6099 16.9597 26.3799C16.9597 25.1499 17.6597 23.9999 18.9297 23.1499ZM24.7501 25.6299H26.0001C26.4101 25.6299 26.7501 25.9699 26.7501 26.3799C26.7501 26.7899 26.4101 27.1299 26.0001 27.1299H24.7501V28.3799C24.7501 28.7899 24.4101 29.1299 24.0001 29.1299C23.5901 29.1299 23.2501 28.7899 23.2501 28.3799V27.1299H22.0001C21.5901 27.1299 21.2501 26.7899 21.2501 26.3799C21.2501 25.9699 21.5901 25.6299 22.0001 25.6299H23.2501V24.3799C23.2501 23.9699 23.5901 23.6299 24.0001 23.6299C24.4101 23.6299 24.7501 23.9699 24.7501 24.3799V25.6299Z" fill="#5ED5A8"/>
</g>
<defs>
<filter id="filter0_d_217_24780" x="0.959717" y="0" width="46.0801" height="52" filterUnits="userSpaceOnUse" color-interpolation-filters="sRGB">
<feFlood flood-opacity="0" result="BackgroundImageFix"/>
<feColorMatrix in="SourceAlpha" type="matrix" values="0 0 0 0 0 0 0 0 0 0 0 0 0 0 0 0 0 0 127 0" result="hardAlpha"/>
<feOffset dy="5"/>
<feGaussianBlur stdDeviation="8"/>
<feComposite in2="hardAlpha" operator="out"/>
<feColorMatrix type="matrix" values="0 0 0 0 0.368627 0 0 0 0 0.835294 0 0 0 0 0.658824 0 0 0 0.25 0"/>
<feBlend mode="normal" in2="BackgroundImageFix" result="effect1_dropShadow_217_24780"/>
<feBlend mode="normal" in="SourceGraphic" in2="effect1_dropShadow_217_24780" result="shape"/>
</filter>
</defs>
</svg>
