<svg width="52" height="52" viewBox="0 0 52 52" fill="none" xmlns="http://www.w3.org/2000/svg">
<g filter="url(#filter0_d_217_24792)">
<path d="M25.9407 11.9856L23.5307 17.2028H21.1207C20.7207 17.2028 20.3307 17.2307 19.9507 17.3051L20.9507 15.0731L20.9907 14.9894L21.0507 14.8407C21.0807 14.7756 21.1007 14.7198 21.1307 14.6733C22.2907 12.1716 23.5907 11.3904 25.9407 11.9856Z" fill="#3E474F"/>
<path d="M32.7296 17.4535L32.7096 17.4442C32.1096 17.2861 31.4996 17.2024 30.8796 17.2024H24.6196L26.8696 12.3385L26.8996 12.2734C27.0396 12.3199 27.1896 12.385 27.3396 12.4315L29.5496 13.2964C30.7796 13.7707 31.6396 14.2636 32.1696 14.8588C32.2596 14.9704 32.3396 15.0727 32.4196 15.1936C32.5096 15.3238 32.5796 15.454 32.6196 15.5935C32.6596 15.6772 32.6896 15.7516 32.7096 15.8353C32.8596 16.3096 32.8696 16.849 32.7296 17.4535Z" fill="#3E474F"/>
<path d="M26.52 26.3531H26.77C27.07 26.3531 27.32 26.102 27.32 25.7951C27.32 25.4045 27.2 25.3487 26.94 25.2557L26.52 25.1162V26.3531Z" fill="#5ED5A8"/>
<path d="M32.2902 18.7827C31.8402 18.6618 31.3702 18.5967 30.8802 18.5967H21.1202C20.4402 18.5967 19.8002 18.7176 19.2002 18.9594C17.4602 19.6569 16.2402 21.2657 16.2402 23.135V24.9485C16.2402 25.1717 16.2602 25.3856 16.2902 25.6088C16.5102 28.5661 18.2102 30.1471 21.3902 30.3424C21.6202 30.3703 21.8502 30.3889 22.1002 30.3889H29.9002C33.6002 30.3889 35.5502 28.7521 35.7402 25.4972C35.7502 25.3205 35.7602 25.1345 35.7602 24.9485V23.135C35.7602 21.0797 34.2902 19.35 32.2902 18.7827ZM27.2802 24.344C27.7402 24.4928 28.3602 24.809 28.3602 25.7948C28.3602 26.6411 27.6502 27.32 26.7702 27.32H26.5202V27.5246C26.5202 27.7943 26.2902 28.0082 26.0002 28.0082C25.7102 28.0082 25.4802 27.7943 25.4802 27.5246V27.32H25.3902C24.4302 27.32 23.6402 26.5667 23.6402 25.6367C23.6402 25.367 23.8702 25.1531 24.1602 25.1531C24.4502 25.1531 24.6802 25.367 24.6802 25.6367C24.6802 26.0273 25.0002 26.3528 25.3902 26.3528H25.4802V24.7811L24.7202 24.53C24.2602 24.3812 23.6402 24.065 23.6402 23.0792C23.6402 22.2329 24.3502 21.554 25.2302 21.554H25.4802V21.3494C25.4802 21.0797 25.7102 20.8659 26.0002 20.8659C26.2902 20.8659 26.5202 21.0797 26.5202 21.3494V21.554H26.6102C27.5702 21.554 28.3602 22.3073 28.3602 23.2373C28.3602 23.507 28.1302 23.7209 27.8402 23.7209C27.5502 23.7209 27.3202 23.507 27.3202 23.2373C27.3202 22.8467 27.0002 22.5212 26.6102 22.5212H26.5202V24.0929L27.2802 24.344Z" fill="#5ED5A8"/>
<path d="M24.6802 23.0795C24.6802 23.4701 24.8002 23.5259 25.0602 23.6189L25.4802 23.7584V22.5215H25.2302C24.9202 22.5215 24.6802 22.7726 24.6802 23.0795Z" fill="#5ED5A8"/>
</g>
<defs>
<filter id="filter0_d_217_24792" x="-2" y="-1.07031" width="56" height="54.3193" filterUnits="userSpaceOnUse" color-interpolation-filters="sRGB">
<feFlood flood-opacity="0" result="BackgroundImageFix"/>
<feColorMatrix in="SourceAlpha" type="matrix" values="0 0 0 0 0 0 0 0 0 0 0 0 0 0 0 0 0 0 127 0" result="hardAlpha"/>
<feOffset dy="5"/>
<feGaussianBlur stdDeviation="8"/>
<feComposite in2="hardAlpha" operator="out"/>
<feColorMatrix type="matrix" values="0 0 0 0 0.368627 0 0 0 0 0.835294 0 0 0 0 0.658824 0 0 0 0.25 0"/>
<feBlend mode="normal" in2="BackgroundImageFix" result="effect1_dropShadow_217_24792"/>
<feBlend mode="normal" in="SourceGraphic" in2="effect1_dropShadow_217_24792" result="shape"/>
</filter>
</defs>
</svg>
