<?xml version="1.0" standalone="no"?>
<!DOCTYPE svg PUBLIC "-//W3C//DTD SVG 20010904//EN"
 "http://www.w3.org/TR/2001/REC-SVG-20010904/DTD/svg10.dtd">
<svg version="1.0" xmlns="http://www.w3.org/2000/svg"
 width="70.000000pt" height="70.000000pt" viewBox="0 0 70.000000 70.000000"
 preserveAspectRatio="xMidYMid meet">
<metadata>
Created by potrace 1.14, written by Peter Selinger 2001-2017
</metadata>
<g transform="translate(0.000000,70.000000) scale(0.100000,-0.100000)"
fill="#000000" stroke="none">
<path d="M272 684 c-71 -19 -101 -35 -151 -85 -170 -171 -101 -450 131 -528
146 -48 309 22 379 164 26 54 32 76 32 137 1 75 -23 149 -60 191 -11 12 -16
32 -14 58 2 32 -1 39 -16 39 -10 0 -24 -4 -32 -9 -10 -6 -27 -3 -51 9 -64 33
-148 42 -218 24z"/>
</g>
</svg>
