<svg width="333" height="369" viewBox="0 0 333 369" fill="none" xmlns="http://www.w3.org/2000/svg">
<path d="M28.1065 102.736C28.1065 102.736 40.8071 117.153 57.3198 119.964L32.3866 132.483L0.300781 109.231L28.1065 102.736Z" fill="#43675E"/>
<path d="M32.3867 132.483C32.3867 132.483 35.8624 125.298 35.0623 119.964C35.0623 119.964 46.2896 113.386 49.2319 108.438L57.32 119.964L32.3867 132.483Z" fill="#CEEBE9"/>
<path d="M204.699 196.37C204.699 196.37 225.824 206.052 238.927 199.026L242.936 210.149C242.936 210.149 225.824 213.992 216.735 211.287C207.645 208.582 203.365 206.981 203.365 206.981L204.699 196.37Z" fill="#43675E"/>
<path d="M204.699 196.37C204.699 196.37 211.265 192.235 217.133 191.988C217.133 191.988 215.261 199.007 218.606 203.1C218.606 203.1 207.116 202.652 203.365 206.962L204.699 196.37Z" fill="#CEEBE9"/>
<path d="M54.7012 166.175C54.7012 166.175 54.7012 162.571 58.9771 161.088C63.253 159.604 65.235 158.072 66.1173 156.118C66.9996 154.164 66.1173 152.161 66.1173 152.161L69.671 152.586C69.671 152.586 69.2606 158.739 66.1173 160.409C62.974 162.078 58.1769 164.343 57.6393 166.175L57.1059 168.011L54.7012 166.175Z" fill="#6FC29F"/>
<path d="M230.102 159.605V166.176L234.829 163.543C234.829 163.543 234.382 158.884 230.102 159.605Z" fill="#43675E"/>
<path d="M231.977 153.383C231.977 153.383 238.132 154.775 241.345 158.55L244.542 162.344L238.259 168.034C238.259 168.034 233.848 161.809 231.977 160.72L230.102 159.627L231.977 153.383Z" fill="#CEEBE9"/>
<path d="M128.054 41.0731L125.912 38.3037L122.912 39.6884L125.481 42.7651L128.054 41.0731Z" fill="#43675E"/>
<path d="M126.978 43.2583C126.978 43.2583 123.593 44.5786 121.098 43.2583C118.603 41.9381 117.766 40.4586 117.766 40.4586L120.384 38.3037C120.384 38.3037 121.274 42.0443 123.95 41.995C126.625 41.9457 128.053 41.0731 128.053 41.0731L126.978 43.2583Z" fill="#CEEBE9"/>
<path d="M194.323 64.2381L198.233 59.2721L193.953 55.3076L189.723 61.1348L194.323 64.2381Z" fill="#6FC29F"/>
<path d="M189.664 63.7934C189.664 63.7934 185.285 59.184 186.307 54.4797C187.329 49.7755 189.59 47.6055 189.59 47.6055L195.097 50.5229C195.097 50.5229 188.675 54.07 190.296 58.2735C191.916 62.4769 194.338 64.2372 194.338 64.2372L189.664 63.7934Z" fill="#CEEBE9"/>
<path d="M202.602 245.563L195.695 244.008L197.337 248.875C197.337 248.875 202.372 249.581 202.602 245.563Z" fill="#CEEBE9"/>
<path d="M43.178 215.38C43.178 215.38 49.5919 236.355 64.0241 240.612L57.799 250.829C57.799 250.829 43.2314 241.682 39.3084 233.628C35.3853 225.574 33.7891 221.571 33.7891 221.571L43.178 215.38Z" fill="#43675E"/>
<path d="M43.178 215.38C43.178 215.38 50.8886 217.095 55.0373 220.957C55.0373 220.957 48.1515 224.371 47.1133 229.424C47.1133 229.424 39.7556 221.245 33.7891 221.571L43.178 215.38Z" fill="#CEEBE9"/>
<path d="M50.0734 51.8584L46.2324 52.8296L48.473 54.7985C48.473 54.7985 51.1362 53.8843 50.0734 51.8584Z" fill="#43675E"/>
<path d="M53.9834 51.874C53.9834 51.874 54.0819 55.1594 52.342 57.3142L50.6144 59.4881L46.3672 57.1891C46.3672 57.1891 49.3505 54.0706 49.7116 52.9742L50.0727 51.8778L53.9834 51.874Z" fill="#CEEBE9"/>
<path opacity="0.5" d="M180.415 369C264.145 369 332.021 363.833 332.021 357.46C332.021 351.086 264.145 345.919 180.415 345.919C96.685 345.919 28.8086 351.086 28.8086 357.46C28.8086 363.833 96.685 369 180.415 369Z" fill="url(#paint0_linear_217_18705)"/>
<path d="M199.698 102.41L206.608 100.862L202.726 97.2354C202.726 97.2354 197.913 98.7377 199.698 102.41Z" fill="#43675E"/>
<path d="M192.717 102.191C192.717 102.191 192.717 96.3141 195.946 92.5545L199.163 88.7949L206.62 93.1046C206.62 93.1046 201.113 98.5334 200.407 100.461L199.697 102.399L192.717 102.191Z" fill="#CEEBE9"/>
<path d="M171.903 284.521C169.941 290.947 172.613 316.009 171.903 323.74C171.813 324.704 171.747 325.831 171.694 327.068C171.694 327.235 171.694 327.405 171.673 327.576C171.333 336.302 171.599 349.894 169.761 351.59C168.37 352.876 162.452 353.487 157.996 353.586C157.368 353.586 156.765 353.609 156.215 353.609C155.141 353.644 154.065 353.576 153.006 353.404C151.225 352.911 158.533 347.47 159.067 345.661C159.284 344.902 158.152 338.98 156.646 331.267L156.473 330.387C154.323 319.427 151.508 305.254 150.687 297.215C149.793 288.421 145.763 273.079 143.071 262.134C142.636 260.374 142.251 258.72 141.902 257.236C140.987 253.238 140.465 250.408 140.708 249.588C141.262 247.737 144.598 241.621 148.915 236.754C151.529 233.833 154.504 231.374 157.446 230.589C159.724 229.982 162.608 229.193 165.563 228.385L165.76 228.332C172.921 226.363 180.389 224.272 180.389 224.272C180.323 225.031 173.848 278.14 171.903 284.521Z" fill="#6FC29F"/>
<path d="M143.916 238.708C143.916 238.708 153.765 303.308 155.443 312.371C157.121 321.434 158.352 333.301 158.352 333.301" stroke="#1B232A" stroke-miterlimit="10"/>
<path d="M124.306 291.286C123.773 296.066 126.091 316.006 128.053 329.849C128.081 330.05 128.11 330.251 128.135 330.448C128.188 330.828 128.233 331.184 128.282 331.552C129.924 344.622 129.103 355.26 128.586 356.049C128.176 356.701 120.711 357.972 115.59 358.469H115.496L115.139 358.503H115.077C113.945 358.606 112.952 358.666 112.205 358.666C108.101 358.666 106.144 357.843 107.568 356.197C108.992 354.55 113.436 352.57 113.087 350.426C112.96 349.668 111.339 343.218 109.238 334.804C109.148 334.451 109.061 334.09 108.967 333.73C105.179 318.555 100.021 297.716 99.0815 291.597C97.5878 281.873 96.8738 244.463 107.391 229.137L143.092 234.512L153.86 236.132V236.167C152.994 237.654 124.835 286.57 124.306 291.286Z" fill="#6FC29F"/>
<path d="M118.13 133.018C118.142 139.928 116.071 146.703 112.151 152.586H112.114C110.945 152.586 109.784 152.541 108.639 152.442C102.836 151.964 97.2201 150.299 92.1984 147.568C87.1767 144.837 82.8743 141.108 79.6026 136.652C76.3308 132.195 74.1714 127.122 73.2806 121.799C72.3898 116.476 72.7899 111.036 74.4519 105.874C74.6365 105.29 74.8622 104.713 75.0592 104.144C76.1677 101.246 77.6722 98.4911 79.5362 95.9458L79.7455 95.665C90.1029 96.1562 99.8609 100.306 107.004 107.257C114.147 114.208 118.13 123.43 118.13 133.018Z" fill="#6FC29F"/>
<path d="M117.177 233.104C117.177 233.104 89.7692 268.386 114.345 340.551" stroke="#1B232A" stroke-miterlimit="10"/>
<path d="M151.405 116.265C151.405 117.524 151.335 118.765 151.204 119.99C151.106 120.87 150.969 121.74 150.794 122.6C149.177 130.995 144.419 138.597 137.351 144.076C130.284 149.555 121.357 152.562 112.134 152.571C115.802 147.042 117.851 140.726 118.081 134.244C118.311 127.762 116.714 121.336 113.447 115.597C110.179 109.857 105.354 105.002 99.4437 101.508C93.5337 98.0134 86.7423 95.9998 79.7363 95.6647C80.4093 94.758 81.1315 93.8816 81.8907 93.0394C86.1063 88.3537 91.5292 84.7238 97.6602 82.4839C103.791 80.244 110.433 79.4661 116.975 80.2218C123.516 80.9775 129.747 83.2425 135.093 86.8084C140.44 90.3742 144.73 95.1262 147.568 100.627C147.851 101.173 148.118 101.731 148.368 102.292C150.373 106.717 151.405 111.467 151.405 116.265Z" fill="url(#paint1_linear_217_18705)"/>
<path d="M91.2445 124.012C91.2445 124.012 90.0134 136.865 91.5317 137.976C93.05 139.088 94.0144 137.104 93.7764 133.894L91.2445 124.012Z" fill="#D27358"/>
<path d="M180.938 222.998C180.803 223.435 180.628 223.86 180.413 224.269C179.243 226.496 175.767 230.718 164.95 233.833C160.162 235.157 155.255 236.084 150.288 236.602C149.833 236.655 149.381 236.705 148.93 236.746C132.105 238.476 118.974 236.132 111.489 233.791C107.312 232.486 104.895 231.177 104.566 230.581C103.651 228.924 105.354 223.248 105.428 222.994C105.428 223.089 105.752 224.36 122.027 226.689H122.072C123.151 226.845 124.296 227 125.515 227.167L125.831 227.205C126.291 227.266 126.758 227.315 127.234 227.353H127.284C138.999 228.358 154.638 224.405 166.001 220.786C169.349 219.72 172.324 218.684 174.717 217.812C176.395 217.205 177.786 216.674 178.82 216.271C180.084 215.778 180.819 215.475 180.872 215.448C180.872 215.448 181.414 217.671 180.913 219.527C180.413 221.382 181.438 221.404 180.938 222.998Z" fill="url(#paint2_linear_217_18705)"/>
<path d="M180.635 217.391C179.892 219.071 175.711 221.943 165.825 224.978C160.449 226.593 154.978 227.925 149.44 228.969C141.333 230.571 133.003 230.97 124.761 230.153C115.552 229.208 109.212 226.901 107.374 225.672C105.634 224.508 105.322 223.59 105.429 222.994C105.473 222.696 105.625 222.421 105.86 222.212H105.897C106.274 222.33 109.84 223.297 130.904 224.834C143.132 225.725 156.432 222.178 166.039 218.734C170.685 217.099 175.218 215.198 179.609 213.043C179.969 213.399 180.265 213.804 180.487 214.246C180.691 214.626 180.829 215.033 180.898 215.452C181.008 216.108 180.917 216.78 180.635 217.391Z" fill="#354E4C"/>
<path d="M112.006 135.135C109.774 135.997 97.5697 142.385 97.5697 142.385C91.4143 130.849 90.8316 121.975 90.8439 118.951C90.8439 118.219 90.885 117.813 90.885 117.813L92.7562 116.675L98.3699 113.261C98.3699 113.261 111.739 120.567 114.591 125.082C117.443 129.597 114.255 134.27 112.006 135.135Z" fill="#F8AD88"/>
<path d="M105.335 128.507C105.335 128.507 107.728 125.271 110.346 125.677C112.964 126.083 113.272 129.031 112.787 131.929C112.303 134.827 107.576 135.696 102.963 138.041C98.351 140.385 96.7793 143.227 96.7793 143.227C96.7793 143.227 114.014 137.418 114.347 134.88C114.679 132.342 116.427 125.533 113.608 124.368C110.789 123.203 107.391 122.71 106.078 124.406C104.765 126.102 105.335 128.507 105.335 128.507Z" fill="#D27358"/>
<path d="M105.861 127.017C104.498 128.018 104.433 132.59 104.433 132.59C103.887 131.252 103.502 129.863 103.284 128.447C102.935 126.141 100.957 121.618 98.0926 121.027C96.0162 120.602 92.5815 119.509 90.8457 118.94C90.8457 118.208 90.8867 117.802 90.8867 117.802L92.758 116.664C96.3116 116.004 101.757 116.231 101.757 116.231C101.757 116.231 107.223 126.031 105.861 127.017Z" fill="#D27358"/>
<path d="M174.721 217.839C171.911 219.262 168.991 220.492 165.985 221.519C163.112 222.543 159.632 223.659 155.434 224.865C150.471 226.29 145.348 227.191 140.165 227.551C135.876 227.846 131.567 227.789 127.288 227.38H127.239C126.766 227.335 126.298 227.285 125.835 227.232L125.561 227.198H125.519C124.329 227.056 123.182 226.897 122.077 226.72H122.031C112.569 225.203 106.413 222.49 105.9 222.259H105.863L104.033 190.122C104.033 190.122 104.292 156.422 108.01 143.899C108.674 141.664 109.446 140.105 110.349 139.532C116.307 135.739 166.567 139.532 171.902 148.596C175.636 154.924 177.914 183.851 178.948 200.737C179.108 203.343 179.235 205.669 179.358 207.566C179.481 209.906 179.563 211.625 179.6 212.497C179.6 212.877 179.629 213.104 179.629 213.104C179.678 213.173 180.528 214.793 174.721 217.839Z" fill="#6FC29F"/>
<path d="M115.355 132.126C115.355 132.506 115.355 132.885 115.334 133.245L115.31 133.86L112.006 135.135C113.878 133.568 115.289 125.328 110.849 124.835C110.527 124.801 110.203 124.801 109.881 124.835C106.13 125.214 104.612 130.195 104.612 130.195L101.846 119.485C101.846 119.485 98.5631 120.225 90.8853 117.835C83.2076 115.445 79.9206 108.108 80.1956 103.161C80.4705 98.2139 85.1896 97.808 86.3509 99.1244C87.5122 100.441 89.9169 103.161 89.9169 103.161C89.6812 102.126 89.6409 101.06 89.7979 100.012C89.8759 99.3103 89.9908 98.6616 90.0892 98.1836C98.6815 101.224 105.852 106.948 110.357 114.364C110.797 115.082 111.208 115.817 111.588 116.568C113.908 121.09 115.187 126.008 115.343 131.011C115.351 131.383 115.355 131.754 115.355 132.126Z" fill="url(#paint3_linear_217_18705)"/>
<path d="M116.947 121.037C117.957 124.268 118.509 127.607 118.589 130.969C118.589 131.257 118.589 131.546 118.589 131.838C118.589 132.13 118.589 132.346 118.589 132.597" stroke="#231F20" stroke-miterlimit="10"/>
<path d="M118.584 131.839C118.584 132.707 115.334 133.246 115.334 133.246C115.987 128.064 112.741 119.076 112.741 119.076C105.457 102.854 90.0768 98.1843 90.0768 98.1843C86.6951 96.9892 83.1497 96.2358 79.543 95.946C80.2779 94.9415 81.0668 93.9716 81.9066 93.04C88.7147 93.8899 95.1971 96.2579 100.795 99.9398C106.392 103.622 110.937 108.507 114.038 114.175C114.426 114.881 114.79 115.599 115.129 116.33C115.847 117.86 116.454 119.433 116.947 121.038C118.051 124.225 118.572 130.97 118.584 131.839Z" fill="#354E4C"/>
<path d="M118.573 132.601C118.573 132.805 118.573 133.01 118.573 133.211C118.326 140.079 116.116 146.764 112.167 152.586H112.13C110.961 152.586 109.799 152.54 108.654 152.442C112.688 146.932 114.997 140.499 115.327 133.853L118.573 132.601Z" stroke="#231F20" stroke-miterlimit="10"/>
<path opacity="0.4" d="M110.345 114.365C108.474 112.168 104.962 107.301 102.61 105.544C101.51 103.317 100.624 99.4933 99.0647 98.1845C94.9406 94.7284 94.5508 91.2002 94.5508 91.2002L105.044 94.6146L110.345 114.365Z" fill="#354E4C"/>
<path d="M148.385 102.286C139.262 110.196 127.587 115.126 115.146 116.322C113.972 116.436 112.789 116.516 111.596 116.561C111.346 116.076 111.088 115.594 110.813 115.124C110.669 114.866 110.517 114.611 110.361 114.365C111.592 114.338 112.823 114.278 114.055 114.175C126.54 113.174 138.326 108.412 147.601 100.62C147.691 100.791 147.778 100.965 147.86 101.14C148.032 101.515 148.213 101.902 148.385 102.286Z" fill="#CEEBE9"/>
<path d="M151.188 119.99C151.09 120.87 150.953 121.74 150.778 122.6C141.453 129.104 130.197 132.811 118.524 133.223C117.769 133.249 117.01 133.265 116.247 133.265H115.303C115.303 132.885 115.323 132.506 115.323 132.145C115.323 131.785 115.323 131.387 115.303 131.03C115.574 131.03 115.844 131.03 116.123 131.03C116.944 131.03 117.753 131.014 118.549 130.981C130.399 130.538 141.806 126.697 151.188 119.99Z" fill="#CEEBE9"/>
<path d="M105.859 131.838C105.859 131.838 107.017 128.458 109.064 127.388C111.112 126.318 112.273 127.801 112.097 129.82C112.097 129.82 111.563 127.964 110.004 128.541C108.445 129.118 105.859 131.838 105.859 131.838Z" fill="#D27358"/>
<path d="M93.6764 120.07C93.5949 120.204 93.5488 120.355 93.5419 120.509C93.535 120.663 93.5674 120.816 93.6365 120.957C93.7057 121.097 93.8096 121.22 93.9398 121.317C94.0701 121.413 94.223 121.48 94.3863 121.511C95.6377 121.753 96.8256 122.22 97.8825 122.885C99.803 124.171 100.062 124.247 99.8071 122.964C99.5527 121.682 97.9154 120.267 96.3232 119.774C95.1824 119.429 94.1483 119.334 93.6764 120.07Z" fill="url(#paint4_linear_217_18705)"/>
<path d="M94.9792 124.176C95.2422 123.331 95.1111 122.553 94.6863 122.441C94.2616 122.328 93.7041 122.922 93.4411 123.767C93.1781 124.613 93.3092 125.39 93.7339 125.503C94.1586 125.616 94.7162 125.022 94.9792 124.176Z" fill="#01010B"/>
<path d="M102.137 137.37C101.877 137.738 101.503 138.024 101.064 138.192C100.624 138.359 100.14 138.399 99.6751 138.307C98.5179 138.144 97.135 137.385 95.7891 135.822C95.7891 135.822 99.2484 133.66 100.061 131.93C100.454 132.447 100.818 132.983 101.152 133.534C101.944 134.805 102.724 136.501 102.137 137.37Z" fill="#7A2B18"/>
<path d="M102.138 137.37C101.878 137.738 101.504 138.024 101.065 138.191C100.625 138.359 100.141 138.399 99.6762 138.307C99.4492 137.461 99.4661 136.576 99.7253 135.738C99.9846 134.901 100.477 134.141 101.153 133.534C101.945 134.805 102.725 136.501 102.138 137.37Z" fill="#EE7671"/>
<path opacity="0.65" d="M140.165 227.551C120.439 228.928 105.859 222.24 105.859 222.24L104.029 190.103C104.029 190.103 104.288 156.403 108.006 143.88C111.518 148.504 121.642 163.091 119.672 175.296C117.317 189.883 120.94 219.963 140.165 227.551Z" fill="#354E4C"/>
<path d="M104.819 203.802C104.819 203.802 113.6 191.616 116.173 174.006L114.121 163.429L104.527 198.563L104.819 203.802Z" fill="#354E4C"/>
<path d="M124.306 135.135C97.3291 147.407 81.0954 168.098 74.5256 177.757C72.8513 180.219 71.809 181.965 71.374 182.666C69.2361 186.126 66.7411 185.303 66.2035 182.666C65.666 180.03 67.6316 176.896 80.1844 158.44C87.5339 147.631 99.0608 140.757 107.383 136.918C110.646 135.377 114.032 134.068 117.51 133.003C122.115 130.15 124.306 135.135 124.306 135.135Z" fill="url(#paint5_linear_217_18705)"/>
<path opacity="0.65" d="M179.581 212.452C173.943 215.946 153.479 223.074 142.723 223.218C130.671 223.378 119.14 217.118 119.033 213.514C118.927 209.91 112.41 172.583 112.41 172.583C115.028 134.043 168.818 189.83 178.949 200.706C179.302 206.518 179.503 210.904 179.581 212.452Z" fill="#354E4C"/>
<path opacity="0.29" d="M124.306 135.135C97.3289 147.408 81.0952 168.099 74.5254 177.758C78.7315 170.751 91.35 150.287 98.2112 145.204C106.517 139.039 107.374 136.93 107.374 136.93C110.638 135.389 114.024 134.08 117.502 133.014C122.114 130.15 124.306 135.135 124.306 135.135Z" fill="#354E4C"/>
<path d="M73.0143 187.91L71.8982 188.475L64.7251 192.003C61.7829 187.553 62.9893 186.935 63.2561 182.735C63.4202 180.129 64.9837 178.941 66.1285 178.433C66.5296 178.248 66.9584 178.12 67.4007 178.054C67.3719 178.114 66.9903 178.968 67.5156 180.759C68.0531 182.621 68.9887 182.367 71.3483 182.697C73.7078 183.027 73.0143 187.91 73.0143 187.91Z" fill="#CEEBE9"/>
<path opacity="0.65" d="M71.8982 188.475L64.7251 192.003C61.7829 187.553 62.9893 186.934 63.2561 182.735C63.4202 180.128 64.9837 178.941 66.1285 178.433C66.2147 179.764 66.5594 182.701 67.9341 183.198C69.7233 183.846 72.1936 182.61 72.448 185.39C72.5748 186.446 72.3845 187.513 71.8982 188.475Z" fill="#354E4C"/>
<path d="M82.3748 209.91C82.3748 209.91 81.8701 214.777 77.4505 213.172C77.3069 213.123 77.1592 213.062 77.0074 212.998C72.1939 210.9 66.8469 200.391 64.9757 194.583C64.274 192.413 64.6064 190.789 65.4271 189.651C66.7936 187.72 69.5307 187.041 71.1269 187.041C73.6671 187.041 78.4805 192.732 78.4805 192.732L82.3748 209.91Z" fill="#6FC29F"/>
<path d="M135.812 217.417C130.26 219.049 109.004 219.622 97.0704 218.366C94.3128 218.074 92.0559 217.687 90.6032 217.194C90.3013 217.086 90.0078 216.959 89.725 216.814C88.0836 215.98 87.9236 215.141 88.5637 214.352C89.3311 213.404 91.2844 212.523 93.3321 211.818C95.3371 211.146 97.3827 210.582 99.4587 210.13C99.4587 210.13 100.788 210.319 103.021 210.509C107.648 210.913 112.302 211.007 116.944 210.79C120.654 210.625 124.343 210.18 127.974 209.462L135.812 217.417Z" fill="url(#paint6_linear_217_18705)"/>
<path d="M98.8188 211.268C92.6634 221.511 79.4335 216.579 77.0247 212.998C76.1589 211.712 76.1096 208.73 76.3928 205.44C76.8404 201.17 77.5432 196.926 78.4979 192.728C78.4979 192.728 80.1024 189.64 84.6533 168.379C89.2041 147.119 106.845 142.385 106.845 142.385C107.776 142.552 108.656 142.905 109.422 143.42C112.906 145.75 113.895 151.387 114.347 159.233C114.86 168.747 104.966 200.994 98.8188 211.268Z" fill="#6FC29F"/>
<path opacity="0.65" d="M78.8551 207.892L77.4681 213.173C77.3245 213.123 77.1768 213.063 77.0249 212.998C72.2114 210.9 66.8645 200.391 64.9933 194.583C64.2916 192.413 64.624 190.789 65.4447 189.651C66.7455 194.784 74.2181 204.345 74.2181 204.345L78.8551 207.892Z" fill="#354E4C"/>
<path opacity="0.65" d="M98.8188 211.268C92.6634 221.511 79.4335 216.579 77.0247 212.998C76.1589 211.712 76.1096 208.73 76.3928 205.441C82.9585 208.286 91.1164 207.641 96.7793 191.988C103.091 174.537 108.007 143.869 108.007 143.869C108.417 143.593 108.907 143.438 109.414 143.421C112.898 145.75 113.887 151.388 114.338 159.233C114.86 168.748 104.966 200.995 98.8188 211.268Z" fill="#354E4C"/>
<path opacity="0.29" d="M135.812 217.418C128.68 219.516 95.6342 219.861 89.725 216.83C88.0836 215.995 87.9236 215.157 88.5637 214.368C92.4152 214.746 96.2876 214.912 100.16 214.865C110.78 214.755 116.759 210.927 116.944 210.809L127.203 208.688L127.987 209.485L135.812 217.418Z" fill="#354E4C"/>
<path opacity="0.65" d="M103.021 210.528C102.961 210.838 102.866 211.142 102.738 211.434C101.938 213.248 100.243 213.331 99.4139 215.471C99.0281 216.472 98.0269 217.527 97.0707 218.366C94.3131 218.073 92.0562 217.686 90.6035 217.193L93.3283 211.833C95.3333 211.16 97.379 210.597 99.4549 210.145C99.4549 210.145 100.789 210.334 103.021 210.528Z" fill="#354E4C"/>
<path d="M89.7242 217.861C86.5152 217.406 82.3747 216.416 82.3747 216.416C82.3747 216.416 77.4299 216.127 75.2345 210.099C74.592 208.238 74.2491 206.301 74.2168 204.348C73.8065 192.728 78.4969 192.728 78.4969 192.728C78.4969 192.728 76.9334 199.177 77.4258 204.302C77.509 205.368 77.7337 206.421 78.0947 207.436C80.0234 212.531 89.7242 217.861 89.7242 217.861Z" fill="#CEEBE9"/>
<path opacity="0.29" d="M89.7251 217.861C86.5161 217.406 82.3756 216.416 82.3756 216.416C82.3756 216.416 77.4308 216.127 75.2354 210.099C75.2354 210.099 74.0043 202.986 76.0561 200.27C76.4103 201.64 76.8627 202.987 77.4103 204.302C77.4935 205.368 77.7181 206.421 78.0792 207.436C80.0243 212.531 89.7251 217.861 89.7251 217.861Z" fill="#354E4C"/>
<path opacity="0.65" d="M90.7637 161.088L92.2861 160.409C96.9689 162.744 102.09 164.234 107.375 164.799L105.569 172.583H104.03L90.7637 161.088Z" fill="#354E4C"/>
<path d="M93.8125 174.685L95.2159 174.006L101.892 175.797L96.8779 188.403H95.2939L93.8125 174.685Z" fill="#28383B"/>
<path d="M96.5256 214.652C96.5256 214.69 96.5051 215.995 93.8131 217.398C93.4665 217.564 93.0941 217.68 92.7093 217.74C88.7822 218.446 79.1675 216.351 76.8941 206.704C74.354 195.949 78.4986 192.735 78.4986 192.735C77.8708 194.655 78.3345 197.007 79.2742 199.367L79.3809 199.629C79.5204 199.974 79.6723 200.319 79.8364 200.66C79.9595 200.93 80.0867 201.203 80.2262 201.48C81.0289 203.042 81.9234 204.561 82.9059 206.032C82.9071 206.043 82.9071 206.053 82.9059 206.063C83.0823 206.328 83.2547 206.582 83.4229 206.822C84.0498 207.67 84.8169 208.423 85.6963 209.052C86.0615 209.325 86.4472 209.599 86.8494 209.864L86.8904 209.887C90.9447 212.539 96.5256 214.652 96.5256 214.652Z" fill="white"/>
<path opacity="0.65" d="M116.279 133.254C116.279 133.254 113.312 139.46 108.638 141.19C103.964 142.92 98.4609 146.657 98.4609 146.657C98.4609 146.657 106.964 141.243 110.078 145.204C113.193 149.164 119.754 142.806 119.849 138.041C119.943 133.276 117.506 133.011 117.506 133.011L116.279 133.254Z" fill="#354E4C"/>
<path d="M148.553 102.376C139.429 110.286 127.755 115.217 115.314 116.413C114.14 116.527 112.957 116.606 111.764 116.652C111.514 116.166 111.255 115.684 110.98 115.214C116.479 114.835 128.47 113.473 137.325 108.677C142.865 105.677 146.123 103.108 148.027 101.223C148.2 101.598 148.38 101.978 148.553 102.376Z" fill="#43675E"/>
<path opacity="0.56" d="M96.5235 214.652C96.5235 214.69 96.503 215.995 93.8111 217.399C93.4645 217.564 93.0921 217.68 92.7072 217.74C90.2469 217.635 87.8493 216.989 85.7142 215.854C83.5792 214.719 81.7686 213.128 80.4335 211.215C75.7554 204.602 78.0985 196.195 78.0985 196.195C78.0985 196.195 78.5089 197.516 79.2721 199.367L79.3788 199.629C79.5184 199.974 79.6702 200.319 79.8343 200.661C79.9574 200.93 80.0847 201.203 80.2242 201.48C80.9758 203.065 81.8723 204.588 82.9038 206.032C82.9051 206.043 82.9051 206.053 82.9038 206.063C83.6922 207.168 84.63 208.175 85.6942 209.06C86.056 209.357 86.4414 209.628 86.8473 209.872L86.8884 209.895C90.9427 212.539 96.5235 214.652 96.5235 214.652Z" fill="#354E4C"/>
<path opacity="0.4" d="M124.104 102.02C124.104 102.02 122.073 106.83 126.484 111.155C130.895 115.48 133.682 116.728 134.236 121.622C134.79 126.516 142.792 130.901 147.203 129.433C151.614 127.965 132.841 133.253 132.841 133.253L117.756 105.893L124.104 102.02Z" fill="#354E4C"/>
<path opacity="0.4" d="M151.406 116.265C151.406 117.525 151.337 118.765 151.205 119.991C151.107 120.871 150.97 121.741 150.795 122.601C149.939 127.126 148.155 131.458 145.538 135.363C137.84 136.288 129.104 133.291 133.269 129.942C139.112 125.245 141.603 107.521 135.062 101.64C130.138 97.2281 130.548 88.5177 131.065 84.4395C138.262 88.1088 144.038 93.766 147.586 100.62C147.869 101.166 148.136 101.724 148.386 102.285C150.386 106.714 151.413 111.466 151.406 116.265Z" fill="#354E4C"/>
<path d="M182.108 144.528C180.492 146.805 172.695 149.798 164.775 151.619C158.57 153.045 152.288 153.755 148.837 152.84C148.363 152.718 147.908 152.541 147.483 152.313C144.947 150.887 142.969 146.152 142.07 140.499C140.765 132.434 141.606 122.506 146.009 117.707C153.498 109.55 149.235 104.345 141.598 100.635C133.961 96.9244 135.984 89.7884 135.443 83.1152C134.901 76.4421 133.038 77.4246 129.361 75.5733C125.684 73.722 127.556 66.18 120.473 57.0371C120.091 56.5477 119.718 56.0962 119.344 55.6789C118.971 55.2616 118.7 54.9809 118.388 54.6698C112.356 48.7098 107.945 51.908 107.104 46.9496C106.168 41.4372 94.8544 41.0503 94.8544 41.0503C94.8544 41.0503 89.7208 41.7104 89.3227 39.6125C89.1627 38.7778 89.6182 38.3909 90.4635 38.3188C91.7397 38.205 93.89 38.793 96.1388 39.6125C99.8812 40.9782 108.039 41.8318 114.855 42.5336C121.671 43.2355 122.077 45.0451 122.077 49.9921C122.077 54.9392 126.755 61.1154 140.441 62.1017C152.378 62.9667 154.233 67.7923 152.411 72.0299C152.139 72.6632 151.801 73.2705 151.402 73.8434C150.38 75.3191 149.711 76.7304 149.604 78.0734C149.567 78.3784 149.567 78.6864 149.604 78.9915C149.908 81.4346 152.337 83.6388 158.291 85.5736C168.185 88.7869 161.5 96.5754 160.433 102.384C159.367 108.192 164.176 104.857 169.79 114.869C175.403 124.881 177.041 118.2 182.888 124.361C188.736 130.522 185.182 140.2 182.108 144.528Z" fill="url(#paint7_linear_217_18705)"/>
<path opacity="0.18" d="M171.143 138.701V146.626C169.148 148.424 167.02 150.093 164.774 151.619C160.786 154.331 155.701 156.903 152.008 155.898C151.146 155.663 150.067 154.574 148.836 152.84C146.875 150.075 144.531 145.678 142.069 140.499C140.764 132.434 141.606 122.505 146.009 117.706C153.498 109.55 149.234 104.345 141.597 100.635C133.961 96.9242 135.984 89.7882 135.442 83.115C134.9 76.4418 133.037 77.4244 129.361 75.5731C125.684 73.7217 127.555 66.1798 120.472 57.0369C120.091 56.5475 119.717 56.096 119.344 55.6787C122.495 57.8715 125.626 61.9611 127.186 66.3012C129.352 72.3712 133.706 71.233 141.856 78.9988C150.006 86.7646 145.069 99.3029 149.48 101.021C153.892 102.74 154.696 109.929 154.294 115.244C153.892 120.559 158.036 125.999 164.713 127.851C171.389 129.702 171.143 138.701 171.143 138.701Z" fill="#354E4C"/>
<path d="M93.4004 214.853C90.6921 214.762 87.6349 213.354 84.9717 211.025C80.3347 206.988 76.8835 200.182 78.4962 192.728C78.7325 193.703 79.0271 194.665 79.3785 195.611C81.2908 200.865 86.65 211.45 98.8171 211.264C98.8171 211.268 100.82 215.099 93.4004 214.853Z" fill="#CEEBE9"/>
<path d="M90.7635 161.088C95.4004 163.604 100.532 165.243 105.861 165.91L104.03 172.583C104.03 172.583 95.9258 171.266 91.3093 168.918C90.4473 168.479 89.7643 167.791 89.3642 166.96C88.9642 166.128 88.8691 165.199 89.0934 164.313C89.4668 162.829 90.0454 161.221 90.7635 161.088Z" fill="#CEEBE9"/>
<path d="M93.8118 174.685L89.7246 186.054L95.2932 188.403L100.16 176.54L93.8118 174.685Z" fill="#EE7671"/>
<path d="M147.495 153.922C143.33 156.251 128.208 155.174 120.001 149.958C119.509 149.647 119.037 149.316 118.598 148.975C110.826 142.905 116.612 140.325 117.519 133.011C118.425 125.697 107.855 119.562 106.517 107.039C105.179 94.5159 94.1488 94.8422 93.6686 88.7836C93.628 88.2634 93.5581 87.7455 93.4594 87.2319C93.3609 86.7274 93.2378 86.2304 93.09 85.7448C93.0326 85.5513 92.971 85.3654 92.9095 85.1795C92.4217 83.7309 91.732 82.3472 90.8577 81.0633C89.4666 79.0526 87.9852 77.9638 87.4025 78.5595C86.8198 79.1551 87.1809 80.02 87.6446 81.0368C87.6503 81.0499 87.6572 81.0626 87.6651 81.0747C88.1863 82.2128 88.8757 83.461 88.8059 84.5536C88.6746 86.6553 85.5969 85.3578 85.3302 81.5186C85.0635 77.6793 83.9924 68.2936 80.1884 63.7222C76.3844 59.1507 74.2177 54.1771 74.0864 50.0988C74.029 48.3385 74.5419 47.1511 75.2559 46.9652C76.1916 46.711 77.4719 48.183 78.231 52.3258C79.4129 58.7941 86.8075 62.732 88.4612 63.54L88.7895 63.6956C94.4073 65.3003 90.6607 63.817 98.2277 65.1789C105.795 66.5409 106.156 70.3688 104.014 72.7171C101.872 75.0654 105.618 74.2005 104.683 78.2787C104.584 78.6974 104.518 79.1221 104.486 79.5496C104.219 82.964 106.32 86.1545 114.334 89.6789C114.773 89.8724 115.229 90.0583 115.705 90.2631C125.923 94.4666 124.474 100.886 123.403 106.455C122.332 112.024 129.148 112.525 130.625 119.987C132.103 127.449 137.039 127.392 147.61 131.835C158.181 136.277 151.894 151.449 147.495 153.922Z" fill="url(#paint8_linear_217_18705)"/>
<path opacity="0.18" d="M144.622 143.868L120.001 149.957C119.508 149.646 119.037 149.316 118.597 148.975C110.825 142.905 116.611 140.325 117.518 133.01C118.425 125.696 107.854 119.562 106.517 107.039C105.179 94.5154 94.1484 94.8417 93.6683 88.7831C93.6276 88.2629 93.5577 87.745 93.459 87.2314C95.0224 91.7081 99.9139 92.0002 105.413 95.6649C111.47 99.7015 114.059 104.254 112.114 111.033C110.169 117.813 120.477 128.458 130.637 131.14C140.798 133.822 144.622 143.868 144.622 143.868Z" fill="#354E4C"/>
<path d="M185.182 207.065C182.253 210.202 156.125 218.469 144.668 220.384C143.393 220.618 142.098 220.745 140.798 220.764C133.309 220.639 123.329 214.842 123.329 214.842C123.329 214.842 111.876 146.687 109.357 143.383C109.357 143.383 108.413 141.938 110.272 142.791C110.272 142.791 129.366 151.828 137.926 152.31C138.348 152.336 138.772 152.336 139.194 152.31C146.945 151.816 183.578 142.787 183.578 142.787C183.578 142.787 188.121 166.897 187.71 190.258C187.71 190.258 188.531 203.483 185.182 207.065Z" fill="url(#paint9_linear_217_18705)"/>
<path d="M144.668 220.388C143.393 220.622 142.098 220.749 140.798 220.768C133.309 220.642 123.329 214.846 123.329 214.846C123.329 214.846 111.876 146.687 109.357 143.383C109.357 143.383 108.413 141.938 110.272 142.791C110.272 142.791 129.366 151.828 137.926 152.31C137.926 152.31 147.737 208.988 144.668 220.388Z" fill="url(#paint10_linear_217_18705)"/>
<path d="M90.9434 176.142C91.7248 173.73 91.4889 171.533 90.4164 171.236C89.3438 170.939 87.8409 172.655 87.0595 175.067C86.278 177.48 86.514 179.676 87.5865 179.973C88.659 180.27 90.1619 178.555 90.9434 176.142Z" fill="#CEEBE9"/>
<path d="M146.543 160.409L182.109 153.053L182.888 164.4L147.881 172.583L146.543 160.409Z" fill="#CEEBE9"/>
<path opacity="0.65" d="M182.108 153.053L179.9 152.313L144.605 159.484L146.144 172.212L147.88 172.583L146.542 160.409L182.108 153.053Z" fill="#354E4C"/>
<path d="M159.395 210.058C158.694 210.144 157.982 210.095 157.304 209.912C156.626 209.73 155.996 209.418 155.455 208.998C154.914 208.578 154.475 208.058 154.164 207.471C153.853 206.885 153.678 206.245 153.65 205.592L152.008 182.989C151.914 181.622 152.375 180.271 153.302 179.202C154.229 178.133 155.555 177.423 157.019 177.211C157.719 177.125 158.431 177.174 159.109 177.357C159.788 177.539 160.417 177.85 160.958 178.271C161.499 178.691 161.939 179.211 162.25 179.797C162.561 180.384 162.736 181.024 162.764 181.677L164.405 204.28C164.501 205.647 164.04 206.998 163.112 208.067C162.185 209.136 160.859 209.846 159.395 210.058Z" fill="#28383B"/>
<path d="M160.627 208.647C159.987 208.726 159.336 208.681 158.716 208.514C158.096 208.348 157.52 208.063 157.026 207.68C156.531 207.296 156.128 206.821 155.843 206.285C155.558 205.75 155.397 205.165 155.37 204.568L153.877 183.923C153.781 182.668 154.199 181.426 155.047 180.442C155.895 179.459 157.112 178.805 158.456 178.612C159.097 178.532 159.748 178.577 160.369 178.743C160.989 178.91 161.566 179.194 162.061 179.578C162.555 179.963 162.958 180.438 163.243 180.975C163.527 181.511 163.687 182.097 163.713 182.694L165.198 203.354C165.29 204.605 164.871 205.842 164.025 206.822C163.179 207.801 161.967 208.452 160.627 208.647Z" fill="#EE7671"/>
<path d="M179.503 203.764C178.869 203.842 178.225 203.797 177.611 203.632C176.997 203.467 176.427 203.185 175.938 202.805C175.448 202.425 175.049 201.955 174.768 201.424C174.486 200.894 174.326 200.315 174.3 199.724L172.827 179.272C172.744 178.039 173.161 176.822 173.996 175.858C174.832 174.895 176.025 174.253 177.345 174.059C177.978 173.981 178.622 174.025 179.236 174.19C179.85 174.354 180.419 174.636 180.909 175.016C181.398 175.396 181.796 175.866 182.078 176.396C182.36 176.927 182.518 177.505 182.544 178.096L184.017 198.533C184.105 199.768 183.69 200.989 182.855 201.956C182.021 202.924 180.825 203.568 179.503 203.764Z" fill="#28383B"/>
<path d="M180.586 202.485C180.007 202.557 179.418 202.516 178.857 202.366C178.295 202.215 177.774 201.958 177.327 201.61C176.879 201.263 176.515 200.833 176.257 200.348C176 199.863 175.854 199.334 175.83 198.794L174.484 180.099C174.408 178.968 174.79 177.852 175.557 176.968C176.323 176.084 177.418 175.496 178.629 175.319C179.208 175.247 179.797 175.288 180.358 175.438C180.919 175.589 181.441 175.846 181.888 176.194C182.336 176.541 182.7 176.971 182.958 177.456C183.215 177.941 183.361 178.47 183.385 179.01L184.731 197.705C184.807 198.836 184.425 199.952 183.658 200.836C182.892 201.72 181.797 202.308 180.586 202.485Z" fill="#EE7671"/>
<path d="M67.6966 30.7086C66.3547 32.0478 63.6259 34.6427 59.0791 34.123C57.3164 33.8858 55.6203 33.3343 54.0851 32.4993L53.8019 32.3551C48.8776 29.6995 41.9467 20.8904 37.1907 13.6178C36.742 12.935 36.3153 12.2673 35.9104 11.6147C35.9104 11.6147 35.8816 11.5692 35.8652 11.5465C33.7642 8.17003 32.2787 5.3437 31.9094 3.95898C31.1502 1.17438 32.529 0.32458 33.6657 0.0817806C34.2682 -0.0430092 34.895 -0.0247374 35.4877 0.134893C38.7659 0.980899 41.9549 2.09825 45.0162 3.47338C45.052 3.48679 45.0863 3.5033 45.1188 3.5227C55.5747 8.22314 63.039 14.9494 67.1385 18.1362C67.2493 18.2272 67.3642 18.3145 67.4709 18.3941L67.5284 18.4397C72.6414 22.4345 69.4899 28.9218 67.6966 30.7086Z" fill="url(#paint11_linear_217_18705)"/>
<path opacity="0.15" d="M67.5291 18.4513L64.4309 17.5749C58.8989 11.9168 52.3658 7.17007 45.1113 3.53809C55.5754 8.22335 63.0398 14.9496 67.1393 18.1364C67.2501 18.2274 67.365 18.3147 67.4717 18.3944L67.5291 18.4513Z" fill="#43675E"/>
<path opacity="0.15" d="M59.0837 34.138C57.321 33.9008 55.625 33.3493 54.0897 32.5142L53.8066 32.3701C48.8823 29.7145 41.9513 20.9054 37.1953 13.6328C37.6385 14.1526 51.9928 30.7691 57.5039 33.144C58.0886 33.3886 58.623 33.7249 59.0837 34.138Z" fill="#43675E"/>
<path d="M67.698 30.709C65.9171 32.4807 61.7109 36.4603 54.0906 32.5148C51.9362 29.6505 52.5394 25.0715 55.7689 21.5395C58.9984 18.0076 63.7299 16.7025 67.1399 18.1479C67.2507 18.239 67.3656 18.3262 67.4723 18.4059C72.6674 22.3855 69.4995 28.9146 67.698 30.709Z" fill="#354E4C"/>
<path d="M67.0115 30.3184C70.0989 26.9396 70.3112 22.4117 67.4858 20.2051C64.6603 17.9985 59.867 18.9487 56.7797 22.3275C53.6923 25.7063 53.4799 30.2341 56.3054 32.4408C59.1308 34.6474 63.9241 33.6972 67.0115 30.3184Z" fill="#1B232A"/>
<path d="M49.7108 36.4904C49.4646 36.2931 39.7515 28.3452 45.7098 22.0059L50.5603 26.7974L51.6067 27.833C51.6067 27.833 48.2171 30.9022 49.7108 36.4904Z" fill="#6EC5A2"/>
<path d="M71.948 14.8247C65.8501 13.6563 62.6575 16.9037 62.6575 16.9037L61.5372 16.0122L56.1328 11.6873C62.756 5.936 71.7264 14.6085 71.9439 14.8247H71.948Z" fill="#6EC5A2"/>
<path d="M45.9146 15.9211C48.2534 15.9211 50.1494 14.1682 50.1494 12.006C50.1494 9.84368 48.2534 8.09082 45.9146 8.09082C43.5757 8.09082 41.6797 9.84368 41.6797 12.006C41.6797 14.1682 43.5757 15.9211 45.9146 15.9211Z" fill="white"/>
<path d="M124.756 293.793C124.756 293.831 124.756 293.872 124.756 293.914C124.666 295.728 121.884 298.197 118.252 299.848C114.62 301.498 102.564 301.577 99.7122 298.118C98.4811 296.6 98.1651 295.341 98.2185 294.385C98.2357 293.678 98.4895 292.994 98.9448 292.427C98.9448 292.427 101.407 293.095 107.197 294.904C112.987 296.714 124.309 291.281 124.309 291.281C124.309 291.281 124.818 292.063 124.756 293.793Z" fill="white"/>
<path opacity="0.56" d="M124.757 293.793C121.375 295.994 114.33 298.111 108.141 297.788C100.513 297.386 98.3462 294.563 98.2148 294.374C98.2321 293.668 98.4858 292.984 98.9412 292.416C98.9412 292.416 101.403 293.084 107.193 294.894C112.984 296.703 124.305 291.271 124.305 291.271C124.305 291.271 124.818 292.063 124.757 293.793Z" fill="#354E4C"/>
<path d="M98.5855 287.078C98.5855 287.078 102.738 291.524 110.941 292.101C119.144 292.678 125.476 288.102 125.476 288.102C125.476 288.102 127.528 290.288 122.349 293.008C117.171 295.728 113.17 297.211 105.861 295.663C98.5526 294.116 96.5706 290.788 98.5855 287.078Z" fill="#CEEBE9"/>
<path d="M98.2109 258.408L99.5323 257.68C99.908 257.474 100.331 257.351 100.767 257.322C101.203 257.293 101.64 257.359 102.044 257.513C108.446 259.881 115.216 261.29 122.098 261.686C122.345 261.7 122.587 261.761 122.807 261.866C123.027 261.971 123.22 262.118 123.375 262.297C123.53 262.476 123.642 262.683 123.705 262.904C123.768 263.126 123.779 263.357 123.739 263.583L121.782 274.972C121.708 275.397 121.519 275.797 121.232 276.136C120.945 276.474 120.569 276.74 120.14 276.907L118.154 277.665L98.2109 258.408Z" fill="#354E4C"/>
<path d="M128.586 356.04C128.175 356.693 120.711 357.964 115.59 358.461H115.495C115.327 358.483 115.208 358.491 115.138 358.495H115.077L117.129 358.844C115.211 359.101 113.279 359.255 111.342 359.307C108.261 359.307 106.307 358.874 105.93 358.013C105.762 357.634 105.893 357.186 106.34 356.651C107.875 354.876 112.652 352.747 112.278 350.444C112.139 349.621 110.395 342.694 108.133 333.634C108.133 333.634 108.429 333.672 108.954 333.722C111.232 333.927 117.867 334.295 123.891 332.326C125.383 331.851 126.809 331.214 128.138 330.429C128.192 330.808 128.237 331.165 128.286 331.533C129.94 344.614 129.099 355.251 128.586 356.04Z" fill="#354E4C"/>
<path d="M108.13 333.654C108.13 333.654 106.899 333.32 107.44 332.515C107.982 331.711 116.399 333.012 122.414 331.343C128.43 329.674 128.098 328.308 128.763 328.437C129.427 328.566 129.965 329.344 128.635 330.129C127.306 330.914 125.266 335.531 108.13 333.654Z" fill="#CEEBE9"/>
<path opacity="0.56" d="M128.282 331.545C129.924 344.614 129.103 355.252 128.586 356.041C128.151 356.716 120.178 358.055 115.044 358.514C118.253 356.132 121.77 351.849 121.035 344.728C119.739 332.095 111.905 309.898 116.152 283.626C120.399 257.354 133.104 237.263 133.104 237.263L143.917 237.156L153.864 236.144C153.864 236.144 124.844 286.498 124.306 291.286C123.768 296.073 126.091 316.006 128.053 329.849C128.135 330.414 128.208 330.979 128.282 331.545Z" fill="#354E4C"/>
<path d="M45.9153 14.7715C47.5675 14.7715 48.9068 13.5333 48.9068 12.0059C48.9068 10.4784 47.5675 9.24023 45.9153 9.24023C44.2632 9.24023 42.9238 10.4784 42.9238 12.0059C42.9238 13.5333 44.2632 14.7715 45.9153 14.7715Z" fill="#1B232A"/>
<path d="M45.111 3.53799C38.6684 4.67611 36.5468 8.57228 35.9026 11.6187C35.9026 11.6187 35.8738 11.5731 35.8574 11.5504C33.7564 8.17394 32.2709 5.3476 31.9016 3.96289C31.1424 1.17828 32.5212 0.328486 33.6579 0.0856868C34.2603 -0.0391029 34.8871 -0.0208312 35.4799 0.138799C38.7581 0.984805 41.9471 2.10215 45.0084 3.47729L45.111 3.53799Z" fill="#6EC5A2"/>
<path opacity="0.65" d="M142.931 156.915C142.931 156.915 144.474 162.408 141.967 165.375C139.459 168.342 137.129 170.648 140.165 176.498C143.202 182.348 142.554 187.045 137.662 189.845C132.771 192.644 130.686 196.863 133.829 201.882C136.973 206.901 120.755 195.118 123.021 189.613C125.286 184.109 131.946 176.752 131.958 169.833C131.97 162.913 135.06 159.787 135.06 159.787L142.931 156.915Z" fill="#354E4C"/>
<path d="M181.032 196.347C180.665 196.393 180.291 196.367 179.935 196.272C179.579 196.176 179.249 196.013 178.965 195.793C178.681 195.573 178.45 195.3 178.287 194.992C178.123 194.685 178.031 194.349 178.016 194.007L177.163 182.151C177.112 181.433 177.354 180.724 177.841 180.162C178.328 179.6 179.024 179.227 179.793 179.116C180.16 179.071 180.534 179.097 180.89 179.193C181.245 179.289 181.576 179.452 181.859 179.672C182.143 179.892 182.374 180.165 182.538 180.472C182.701 180.779 182.794 181.115 182.809 181.457L183.663 193.312C183.714 194.031 183.472 194.741 182.986 195.302C182.499 195.864 181.802 196.237 181.032 196.347Z" fill="white"/>
<path d="M70.024 24.521C68.665 23.5006 66.9327 23.004 65.1876 23.1348C63.4426 23.2656 61.8193 24.0137 60.6559 25.2232C59.4925 26.4327 58.8786 28.0105 58.942 29.6281C59.0053 31.2456 59.7412 32.7782 60.9962 33.9067C60.9962 33.9067 66.2323 39.2976 81.0257 41.995C81.0257 41.995 80.3937 35.8036 71.1771 25.7274C70.8495 25.2818 70.462 24.8764 70.024 24.521Z" fill="url(#paint12_linear_217_18705)"/>
<path opacity="0.65" d="M162.449 148.022C162.873 149.405 163.864 150.581 165.211 151.3C167.534 152.601 166.467 155.295 170.956 156.915C175.445 158.535 178.129 158.292 176.348 162.821C174.567 167.351 185.934 160.056 182.877 155.424C179.82 150.791 168.424 146.744 168.157 146.656C167.891 146.569 162.445 145.01 162.449 148.022Z" fill="#354E4C"/>
<path d="M67.3981 25.8376C67.0066 25.5138 66.5499 25.2644 66.0542 25.1038C65.5584 24.9431 65.0333 24.8743 64.5088 24.9012C63.9843 24.9282 63.4706 25.0504 62.9972 25.2608C62.5238 25.4713 62.0998 25.7659 61.7495 26.1278C61.3993 26.4898 61.1295 26.912 60.9557 27.3703C60.7819 27.8286 60.7075 28.3141 60.7366 28.799C60.7658 29.2839 60.898 29.7588 61.1256 30.1965C61.3533 30.6341 61.672 31.0261 62.0635 31.3499C62.0635 31.3499 65.1411 34.5177 73.8284 36.0997C73.8284 36.0997 73.4591 32.4653 68.0424 26.5471C67.8605 26.2866 67.644 26.0483 67.3981 25.8376Z" fill="white"/>
<path d="M124.844 77.7847C123.329 80.8197 114.585 78.0313 111.741 70.1213C110.719 67.276 109.312 65.6599 107.83 64.4725C107.261 64.022 106.666 63.5991 106.049 63.2053C103.998 61.8662 101.991 60.7508 100.887 57.7613C98.6588 51.7483 94.3828 52.488 90.4886 50.428C89.579 49.9669 88.7649 49.3607 88.0839 48.6374C86.742 47.1616 86.8938 45.8945 86.8938 45.8945C87.7146 48.368 92.6881 49.8514 96.5208 50.5912C100.354 51.3309 100.711 53.9714 101.334 56.4449C101.958 58.9184 105.343 59.9845 112.824 64.518C120.305 69.0515 126.358 74.7345 124.844 77.7847Z" fill="url(#paint13_linear_217_18705)"/>
<path d="M215.261 162.818C208.174 167.268 212.856 172.212 207.239 174.685C202.429 176.802 200.468 178.263 199.75 180.474C199.628 180.86 199.54 181.255 199.487 181.654C199.077 184.572 192.536 183.103 193.069 178.585C193.574 174.294 197.337 172.963 196.738 169.343C196.708 169.145 196.665 168.949 196.61 168.755C195.474 164.677 191.6 162.936 194.674 158.554C197.747 154.172 196.68 151.452 194.005 151.346C191.329 151.24 192.532 155.648 189.191 156.938C185.851 158.228 185.219 153.273 185.219 153.273C185.219 153.273 184.111 144.29 183.578 142.814L173.791 145.174C173.791 145.174 171.772 144.999 170.684 143.614C170.167 142.962 169.863 142.032 170.073 140.72C170.17 140.147 170.307 139.581 170.483 139.024C171.328 136.22 172.773 135.158 172.773 135.158C172.773 135.158 173.298 134.616 174.184 133.823C176.757 131.524 182.363 127.131 186.934 127.863C193.09 128.853 192.95 131.16 195.223 127.783C196.044 126.596 198.584 125.241 201.613 124.41C207.198 122.874 214.334 123.117 214.871 129.456C215.499 137.112 212.77 139.456 214.116 142.07C214.2 142.235 214.298 142.394 214.408 142.545C214.942 143.265 215.594 143.905 216.34 144.441C218.565 146.141 219.98 148.842 220.366 151.744C220.891 155.769 219.398 160.22 215.261 162.818Z" fill="url(#paint14_linear_217_18705)"/>
<path d="M201.494 149.346C198.819 156.391 195.076 157.135 196.16 161.088C197.21 164.961 196.775 169.165 196.755 169.339C196.725 169.141 196.683 168.945 196.628 168.751C195.491 164.673 191.617 162.932 194.691 158.55C197.764 154.168 196.697 151.448 194.022 151.342C191.346 151.236 192.549 155.644 189.208 156.934C185.868 158.224 185.236 153.269 185.236 153.269C185.236 153.269 184.128 144.285 183.595 142.81L173.808 145.169C173.808 145.169 171.789 144.995 170.701 143.61C170.404 142.096 170.331 140.552 170.484 139.02C170.705 137.176 171.415 135.605 172.847 134.6C172.847 134.6 173.36 134.255 174.185 133.818C176.27 132.707 180.341 130.985 183.328 132.62C187.473 134.896 185.601 138.735 190.813 139.232C196.024 139.729 204.166 142.301 201.494 149.346Z" fill="url(#paint15_linear_217_18705)"/>
<path d="M99.7135 258.511C102.754 259.998 109.439 262.65 119.267 263.181C119.531 263.196 119.789 263.262 120.025 263.375C120.26 263.487 120.467 263.644 120.632 263.836C120.798 264.027 120.918 264.248 120.985 264.485C121.053 264.722 121.066 264.969 121.023 265.211L119.054 276.463C118.979 276.893 118.734 277.282 118.366 277.554C117.998 277.826 117.534 277.962 117.063 277.935C112.726 277.677 101.297 276.592 95.852 272.115C95.6341 271.934 95.4657 271.707 95.3609 271.454C95.256 271.201 95.2176 270.928 95.2488 270.659C95.4663 268.542 96.1024 262.923 96.9969 259.634C97.0665 259.377 97.1983 259.138 97.3825 258.935C97.5666 258.732 97.7983 258.57 98.0599 258.462C98.3216 258.354 98.6064 258.302 98.8928 258.31C99.1793 258.319 99.4599 258.388 99.7135 258.511Z" fill="#CEEBE9"/>
<path d="M155.43 149.346L143.719 151.695C143.34 151.768 142.988 151.932 142.7 152.171C142.411 152.411 142.197 152.716 142.077 153.057C141.88 153.66 141.934 154.532 142.545 155.773C144.326 159.396 140.539 161.084 138.667 162.818C136.796 164.548 133.998 166.779 137.678 175.576C140.399 182.067 137.326 184.279 134.022 186.229C132.839 186.87 131.713 187.596 130.653 188.399C126.907 191.491 126.775 191.859 133.283 201.006C139.792 210.152 125.84 217.444 117.784 208.681C109.729 199.917 117.55 189.143 120.357 185.558C120.948 184.823 121.439 184.024 121.818 183.179C123.082 180.265 122.479 176.957 118.589 171.84C113.611 165.288 116.746 156.141 124.334 154.533C129.077 153.527 129.865 152.173 129.791 151.296C129.754 150.978 129.61 150.679 129.381 150.439C121.51 148.607 110.287 142.806 110.287 142.806C110.475 142.356 110.704 141.922 110.972 141.509C112.224 139.638 115.211 136.558 120.587 138.292C128.076 140.704 128.076 138.967 130.616 138.386C133.156 137.806 135.159 137.248 139.89 140.082C144.622 142.916 147.059 136.99 151.38 138.705C152.771 139.255 153.682 140.549 154.281 142.055C155.57 145.226 155.43 149.346 155.43 149.346Z" fill="url(#paint16_linear_217_18705)"/>
<path opacity="0.31" d="M172.565 166.221C172.565 166.221 169.22 166.858 170.382 172.871C171.543 178.884 174.933 182.511 180.46 182.355C185.988 182.2 183.415 176.084 183.415 176.084C183.415 176.084 177.428 175.352 175.208 172.055C172.987 168.759 172.565 166.221 172.565 166.221Z" fill="#354E4C"/>
<path d="M177.426 170.853C177.393 172.124 178.452 172.795 179.691 173.379C181.567 174.26 183.857 174.939 183.438 177.173C182.74 180.887 177.533 181.012 174.472 178.034C171.41 175.056 169.137 168.755 171.673 167.033C174.209 165.31 171.386 164.684 174.472 162.461C177.27 160.443 179.925 159.726 178.858 157.624C178.732 157.379 178.581 157.145 178.407 156.926C176.355 154.27 173.167 156.744 171.152 154.1C169.137 151.455 169.671 149.851 167.664 149.851C165.657 149.851 164.791 149.054 164.418 148.246C164.045 147.438 158.213 148.747 158.213 148.747C158.213 148.747 156.753 144.111 159.535 142.533C161.775 141.262 162.863 141.47 163.228 140.059C163.324 139.616 163.369 139.164 163.363 138.712C163.396 135.761 167.943 132.054 171.956 134.539L172.055 134.604C175.887 137.066 171.267 140.442 173.286 142.616C175.305 144.79 177.25 143.705 177.517 145.56C177.783 147.415 179.302 150.492 181.308 150.359C182.197 150.28 183.094 150.405 183.918 150.723C184.742 151.041 185.468 151.543 186.031 152.184C186.91 153.193 187.591 154.726 187.808 157.032C188.391 163.189 177.512 167.662 177.426 170.853Z" fill="url(#paint17_linear_217_18705)"/>
<path d="M172.601 288.273C172.536 288.845 172.327 289.395 171.989 289.878C170.566 292.018 163.257 294.491 157.106 294.81C150.955 295.129 148.078 292.716 148.55 291.396C149.022 290.075 149.264 289.707 150.064 289.624C150.864 289.54 166.552 290.037 171.989 286.164C172.474 286.771 172.692 287.524 172.601 288.273Z" fill="white"/>
<path opacity="0.56" d="M172.602 288.273C171.74 289.032 170.045 290.732 162.203 292.265C154.193 293.831 148.551 291.4 148.551 291.4C149.039 290.072 149.265 289.711 150.065 289.628C150.865 289.544 166.553 290.041 171.99 286.168C172.474 286.774 172.692 287.526 172.602 288.273Z" fill="#354E4C"/>
<path d="M148.948 286.828C148.948 286.828 160.438 292.139 172.137 283.626C172.137 283.626 173.249 284.931 171.46 286.828C169.671 288.725 166.199 290.785 159.514 291.286C152.83 291.786 149.256 290.709 148.459 289.556C147.663 288.402 148.948 286.828 148.948 286.828Z" fill="#CEEBE9"/>
<path d="M171.706 327.067C171.706 327.234 171.706 327.405 171.686 327.576C171.345 336.301 171.612 349.894 169.774 351.59C168.383 352.876 162.465 353.487 158.009 353.586C157.381 353.586 156.778 353.608 156.228 353.608C155.793 353.821 155.514 353.95 155.465 353.988C154.469 354.012 153.473 353.94 152.494 353.771C151.981 353.631 152.182 353.096 152.76 352.36C154.295 350.399 158.505 346.977 158.916 345.585C159.145 344.799 157.951 338.524 156.359 330.368L156.503 330.402C157.418 330.603 162.584 331.612 167.201 329.989C168.948 329.387 170.5 328.382 171.706 327.067Z" fill="#354E4C"/>
<path d="M156.329 330.361C156.329 330.361 155.167 329.982 155.508 329.496C155.848 329.011 158.947 330.054 162.209 329.929C165.471 329.803 170.469 327.501 171.778 325.532C173.088 323.563 172.743 325.934 172.008 326.723C171.274 327.512 168.451 332.58 156.329 330.361Z" fill="white"/>
<path opacity="0.56" d="M171.904 323.741C171.802 324.837 171.732 326.142 171.674 327.576C171.334 336.302 171.6 349.895 169.762 351.591C168.371 352.877 162.454 353.488 157.997 353.586C160.106 351.731 162.921 348.821 163.98 345.741C165.773 340.551 158.444 308.665 157.825 297.329C157.205 285.993 151.395 240.423 151.395 240.423L153.857 236.136L155.088 235.92L165.195 233.754L169.056 232.521C176.217 230.552 180.399 224.258 180.399 224.258C180.399 224.258 173.833 278.087 171.888 284.514C169.943 290.94 172.614 315.998 171.904 323.741Z" fill="#354E4C"/>
<path opacity="0.18" d="M90.8409 81.0284C89.4498 79.0178 87.9684 77.929 87.3857 78.5246C86.803 79.1202 87.1641 79.9852 87.6278 81.0019C87.3652 80.5125 84.5912 75.2809 84.7799 71.9956C84.9728 68.5812 81.5792 63.122 81.4766 62.9551C81.6038 63.103 84.2629 66.2253 84.9154 68.6457C85.5801 71.1192 86.6512 74.2073 88.2557 75.5655C89.8602 76.9236 90.7835 80.7856 90.8409 81.0284Z" fill="#354E4C"/>
<path opacity="0.18" d="M114.334 89.6783C113.924 89.5645 102.397 86.4005 100.161 81.0286C97.8833 75.558 97.477 71.1117 93.4022 68.7634C89.6105 66.5782 87.2181 64.9241 86.9062 64.7041C87.4192 64.9886 92.9508 68.0274 95.2939 68.145C97.7561 68.2664 103.202 73.0769 103.284 76.3016C103.374 77.4661 103.799 78.5872 104.515 79.549C104.236 82.952 106.337 86.1539 114.334 89.6783Z" fill="#354E4C"/>
<path d="M92.918 85.1602C93.0188 85.3354 93.0802 85.5277 93.0985 85.7254C93.0288 85.5319 92.9672 85.346 92.918 85.1602Z" fill="#354E4C"/>
<path opacity="0.18" d="M152.419 72.0069C152.147 72.6402 151.808 73.2475 151.409 73.8203C150.387 75.2961 149.719 76.7073 149.612 78.0503C149.509 75.7741 148.824 69.8862 144.61 68.0121C139.324 65.6714 134.773 63.9414 134.773 63.9414C134.773 63.9414 149.501 64.4877 152.419 72.0069Z" fill="#354E4C"/>
<path opacity="0.18" d="M118.392 54.6547C112.36 48.6948 107.949 51.8929 107.107 46.9345C106.172 41.4222 94.8583 41.0352 94.8583 41.0352C94.8583 41.0352 89.7247 41.6953 89.3266 39.5974C89.1666 38.7628 89.6221 38.3758 90.4674 38.3037C90.4674 38.3037 88.826 39.715 92.4905 39.9654C96.155 40.2158 106.213 42.0254 108.084 44.4951C109.955 46.9648 111.749 49.5218 115.351 51.1683C116.981 51.9005 117.887 53.3269 118.392 54.6547Z" fill="#354E4C"/>
<path opacity="0.18" d="M88.4604 63.5392C87.1325 63.2618 85.8282 62.8954 84.5579 62.4428C77.7829 60.0376 77.0689 54.3849 76.7118 51.0047C76.3548 47.6245 75.2715 46.9681 75.2715 46.9681C76.2071 46.714 77.4874 48.1859 78.2466 52.3287C79.412 58.7932 86.8066 62.7311 88.4604 63.5392Z" fill="#354E4C"/>
<path d="M129.365 150.424C121.495 148.591 110.271 142.791 110.271 142.791C110.466 142.346 110.7 141.917 110.973 141.509C111.121 141.383 114.424 138.648 118.109 140.822C121.88 143.049 121.704 145.109 125.18 145.109C128.655 145.109 129.698 148.986 129.365 150.424Z" fill="url(#paint18_linear_217_18705)"/>
<path opacity="0.18" d="M155.431 149.346L143.719 151.694C143.34 151.767 142.988 151.932 142.7 152.171C142.412 152.41 142.197 152.716 142.078 153.056C142.078 153.056 141.208 149.839 144.618 148.36C148.028 146.88 152.37 146.596 153.133 143.868C153.342 143.174 153.752 142.546 154.319 142.051C155.57 145.226 155.431 149.346 155.431 149.346Z" fill="#354E4C"/>
<path opacity="0.18" d="M119.849 168.505C123.283 175.922 123.772 180.129 121.814 183.164C123.078 180.25 122.475 176.942 118.585 171.824C113.607 165.273 116.742 156.126 124.33 154.517C129.074 153.512 129.861 152.158 129.788 151.281C130.034 152.158 130.034 153.58 128.388 155.075C125.688 157.503 116.414 161.088 119.849 168.505Z" fill="#354E4C"/>
<path opacity="0.18" d="M134.005 186.232C136.184 181.084 131.954 180.637 131.436 173.679C130.911 166.471 138.413 162.928 138.651 162.821C136.779 164.551 133.981 166.782 137.662 175.58C140.382 182.071 137.309 184.301 134.005 186.232Z" fill="#354E4C"/>
<path d="M178.862 157.613C178.736 157.367 178.585 157.134 178.411 156.914C176.359 154.259 173.171 156.732 171.156 154.088C169.141 151.444 169.674 149.839 167.668 149.839C165.661 149.839 164.795 149.042 164.422 148.234C164.048 147.426 158.217 148.735 158.217 148.735C158.217 148.735 156.756 144.099 159.539 142.521C161.779 141.25 162.867 141.459 163.232 140.047C163.63 139.994 164.032 139.973 164.434 139.983C168.751 140.078 167.011 143.158 169.551 145.203C172.091 147.248 171.34 151.941 176.261 153.056C179.728 153.842 179.367 156.262 178.862 157.613Z" fill="url(#paint19_linear_217_18705)"/>
<path opacity="0.18" d="M173.282 142.593C173.282 142.593 170.208 140.788 171.144 138.701C171.654 137.374 171.958 135.987 172.047 134.581C175.88 137.043 171.259 140.42 173.282 142.593Z" fill="#354E4C"/>
<path opacity="0.18" d="M177.427 170.853C177.394 172.124 178.452 172.795 179.692 173.38C179.692 173.38 175.153 172.211 175.691 168.258C176.228 164.305 184.341 163 185.695 156.915C186.098 155.359 186.211 153.752 186.028 152.161C186.906 153.17 187.587 154.703 187.804 157.01C188.391 163.19 177.513 167.662 177.427 170.853Z" fill="#354E4C"/>
<path opacity="0.18" d="M214.105 142.047C213.97 141.925 211.577 139.771 212.008 135.298C212.456 130.685 212.574 124.52 201.602 124.387C207.187 122.851 214.323 123.093 214.86 129.433C215.488 137.088 212.743 139.433 214.105 142.047Z" fill="#354E4C"/>
<path opacity="0.18" d="M215.261 162.818C208.175 167.268 212.857 172.211 207.239 174.684C202.43 176.801 200.468 178.262 199.75 180.474C199.75 180.189 200.045 176.042 204.346 172.583C208.798 168.997 205.77 164.217 210.85 160.511C215.93 156.804 217.802 151.118 215.774 148.234C217.689 148.878 219.311 150.101 220.379 151.706C220.892 155.769 219.398 160.219 215.261 162.818Z" fill="#354E4C"/>
<path d="M99.0735 118.985C99.0735 118.985 89.2865 117.665 84.5633 112.156C79.8401 106.647 79.8278 102.042 81.4816 100.631C83.1353 99.2194 83.9437 104.098 84.3828 105.904C84.8219 107.71 86.6644 115.358 99.0735 118.985Z" fill="#45695E"/>
<path d="M86.1597 108.594C86.1597 108.594 84.9286 106.295 85.1831 104.853C85.4375 103.412 85.8889 105.832 86.1597 106.724C86.3145 107.339 86.3145 107.979 86.1597 108.594Z" fill="#45695E"/>
<path d="M161.189 201.111C160.8 201.16 160.405 201.133 160.028 201.032C159.651 200.931 159.3 200.758 159 200.525C158.699 200.292 158.454 200.003 158.281 199.678C158.107 199.352 158.009 198.997 157.993 198.634L157.09 186.073C157.033 185.312 157.288 184.56 157.805 183.965C158.321 183.37 159.06 182.977 159.876 182.864C160.265 182.815 160.661 182.841 161.038 182.942C161.415 183.043 161.765 183.216 162.066 183.449C162.366 183.682 162.611 183.971 162.783 184.297C162.956 184.623 163.053 184.978 163.069 185.341L163.976 197.902C164.032 198.663 163.777 199.415 163.261 200.01C162.744 200.605 162.005 200.998 161.189 201.111Z" fill="white"/>
<path d="M99.2285 259.395C99.2285 259.395 106.246 262.768 111.49 263.344C116.734 263.921 119.315 264.005 119.139 265.735C118.963 267.464 118.249 276.357 117.178 276.736C116.106 277.116 105.77 275.868 101.67 274.221C97.5707 272.575 96.2329 271.418 96.3355 270.678C96.4381 269.938 98.2231 259.395 98.2231 259.395C98.2231 259.395 98.572 258.739 99.2285 259.395Z" stroke="white" stroke-miterlimit="10"/>
<path opacity="0.29" d="M93.401 214.853C90.6926 214.762 87.6355 213.355 84.9723 211.025C84.8779 210.798 83.0559 206.26 80.9959 203.798C78.9359 201.336 79.3545 195.794 79.3791 195.615C81.2914 200.87 86.6506 211.454 98.8177 211.268C98.8177 211.268 100.82 215.1 93.401 214.853Z" fill="#354E4C"/>
<path d="M90.8655 163.437C90.8655 163.437 99.8934 166.824 104.05 166.851C104.05 166.851 104.305 168.748 103.041 168.934C101.777 169.12 93.221 167.067 91.797 166.187C90.3731 165.307 90.8655 163.437 90.8655 163.437Z" stroke="white" stroke-miterlimit="10"/>
<path d="M95.6548 179.282C96.4004 179.282 97.0048 178.724 97.0048 178.034C97.0048 177.345 96.4004 176.786 95.6548 176.786C94.9091 176.786 94.3047 177.345 94.3047 178.034C94.3047 178.724 94.9091 179.282 95.6548 179.282Z" stroke="white" stroke-miterlimit="10"/>
<path d="M93.3149 185.011C94.0605 185.011 94.665 184.452 94.665 183.763C94.665 183.073 94.0605 182.515 93.3149 182.515C92.5693 182.515 91.9648 183.073 91.9648 183.763C91.9648 184.452 92.5693 185.011 93.3149 185.011Z" stroke="white" stroke-miterlimit="10"/>
<path d="M161.881 205.046C162.627 205.046 163.231 204.487 163.231 203.798C163.231 203.109 162.627 202.55 161.881 202.55C161.136 202.55 160.531 203.109 160.531 203.798C160.531 204.487 161.136 205.046 161.881 205.046Z" stroke="white" stroke-miterlimit="10"/>
<path d="M181.735 200.27C182.48 200.27 183.085 199.711 183.085 199.022C183.085 198.332 182.48 197.773 181.735 197.773C180.989 197.773 180.385 198.332 180.385 199.022C180.385 199.711 180.989 200.27 181.735 200.27Z" stroke="white" stroke-miterlimit="10"/>
<path opacity="0.25" d="M78.8555 100.365C78.8555 100.365 95.0974 107.74 102.57 118.594C110.043 129.448 110.527 120.927 108.639 118.594C106.752 116.261 103.588 108.047 95.7909 102.782C87.9941 97.5159 80.1481 94.8907 78.8555 100.365Z" fill="white"/>
<path opacity="0.25" d="M108.232 126.049C108.232 126.049 108.425 124.118 110.283 124.126C112.142 124.134 112.807 125.833 112.097 126.622C111.387 127.411 107.772 128.212 108.232 126.049Z" fill="white"/>
<path d="M129.378 354.2C129.251 355.49 129.099 356.291 128.968 356.476C128.394 357.36 115.734 359.31 111.323 359.31C108.241 359.31 106.288 358.878 105.91 358.017C105.91 358.032 124.573 357.455 129.378 354.2Z" fill="#CEEBE9"/>
<path d="M170.644 351.116C170.548 351.383 170.394 351.63 170.193 351.841C167.936 353.935 154.37 354.284 152.482 353.757C151.969 353.616 152.17 353.081 152.749 352.345C152.749 352.345 162.733 353.521 170.644 351.116Z" fill="#CEEBE9"/>
<path d="M187.828 353.043H177.159C177.159 353.043 175.017 348.954 177.159 346.484C179.301 344.014 180.938 335.103 180.938 335.103L184.742 327.826C184.742 327.826 190.795 320.763 191.866 319.279C192.937 317.796 194.263 323.961 199.749 326.442C205.236 328.923 208.174 336.051 208.174 336.051L187.828 353.043Z" fill="url(#paint20_linear_217_18705)"/>
<path opacity="0.18" d="M106.049 63.2056C103.998 61.8665 101.991 60.7511 100.887 57.7616C98.6589 51.7486 94.383 52.4883 90.4887 50.4283C89.5791 49.9672 88.765 49.361 88.084 48.6377C91.3012 50.2083 96.7548 51.6347 98.0351 52.2417C99.775 53.065 101.544 57.0181 102.446 59.3284C102.951 60.66 104.671 62.17 106.049 63.2056Z" fill="#354E4C"/>
<path d="M49.7116 36.4899C49.6172 36.3305 46.8391 31.539 50.561 26.7969L51.6074 27.8326C51.6074 27.8326 48.2179 30.9017 49.7116 36.4899Z" fill="url(#paint21_linear_217_18705)"/>
<path d="M71.9479 14.8242C65.85 13.6557 62.6574 16.9032 62.6574 16.9032L61.5371 16.0117C61.5371 16.0117 66.3793 12.6997 71.9438 14.8204L71.9479 14.8242Z" fill="url(#paint22_linear_217_18705)"/>
<path d="M94.564 123.564C94.7159 123.564 94.8389 123.45 94.8389 123.31C94.8389 123.169 94.7159 123.056 94.564 123.056C94.4122 123.056 94.2891 123.169 94.2891 123.31C94.2891 123.45 94.4122 123.564 94.564 123.564Z" fill="white"/>
<path d="M323.656 353.043H187.828C187.828 339.139 195.313 337.041 199.318 333.194C200.349 332.221 201.29 331.17 202.133 330.053C203.258 328.564 204.114 326.917 204.669 325.174C205.203 323.695 206.54 322.951 206.54 320.243C206.54 317.534 209.212 317.773 208.469 311.096C208.365 310.097 208.377 309.091 208.506 308.095C209.249 301.703 214.05 293.641 220.71 288.189C228.466 281.846 234.346 255.48 236.755 247.57C239.164 239.66 244.24 242.873 246.111 245.84C247.982 248.806 256.538 263.636 265.361 267.085C274.184 270.533 279.268 279.942 279.535 287.931C279.579 288.813 279.748 289.686 280.039 290.526C281.27 294.21 284.492 298.546 287.906 302.586C287.908 302.595 287.908 302.604 287.906 302.613C291.394 306.737 295.067 310.553 296.975 313.042C297.254 313.421 297.496 313.74 297.693 314.044C300.902 318.975 306.249 323.934 314.267 328.376C322.286 332.819 323.656 353.043 323.656 353.043Z" fill="url(#paint23_linear_217_18705)"/>
<path d="M50.4219 359.326H99.0738C99.0738 359.326 101.154 355.498 97.8427 353.586C94.5311 351.674 93.8868 336.302 90.604 334.101C87.3211 331.901 84.3789 327.838 84.3789 327.838C84.3789 327.838 86.9559 317.052 77.5136 328.43C68.0713 339.807 67.5707 345.74 64.612 347.47C61.6533 349.2 56.0355 347.592 54.9686 351.116C53.9017 354.641 50.4219 359.326 50.4219 359.326Z" fill="url(#paint24_linear_217_18705)"/>
<path d="M241.343 242.597C241.343 242.597 236.517 257.013 237.055 265.405C237.592 273.796 235.179 285.997 233.846 288.926C232.512 291.855 223.119 295.705 220.46 300.948C217.801 306.191 221.543 291.688 226.357 286.828C231.17 281.968 235.471 246.736 241.343 242.597Z" fill="url(#paint25_linear_217_18705)"/>
<path opacity="0.56" d="M219.578 302.074C219.578 302.074 213.792 312.37 212.741 316.323C211.691 320.277 202.039 330.91 202.039 330.91C202.039 330.91 202.08 330.599 202.158 330.049C203.283 328.56 204.139 326.913 204.694 325.17C205.228 323.691 206.565 322.947 206.565 320.239C206.565 317.53 209.237 317.769 208.494 311.092C208.39 310.093 208.402 309.087 208.531 308.091C212.331 305.25 219.578 302.074 219.578 302.074Z" fill="#354E4C"/>
<path opacity="0.4" d="M221.99 353.044C221.99 353.044 226.27 324.238 229.299 320.774C232.327 317.311 236.607 299.465 238.031 296.115C239.455 292.765 241.441 288.812 241.343 287.078C241.244 285.345 241.343 282.048 241.343 282.048C241.343 282.048 236.607 293.205 234.469 294.567C232.331 295.929 218.781 306.294 217.71 309.742C216.639 313.191 211.473 331.568 203.093 336.063C194.714 340.559 188.448 346.815 188.448 346.815L187.828 353.051L221.99 353.044Z" fill="#354E4C"/>
<path opacity="0.4" d="M323.658 353.044H234.828C234.828 353.044 240.709 325.061 242.313 321.935C243.918 318.809 244.989 292.678 247.648 288.93C250.307 285.182 249.966 273.812 249.252 271.505C248.538 269.199 244.796 261.869 244.796 259.107C244.796 256.345 243.565 247.115 243.565 247.115C243.565 247.115 256.22 264.988 261.391 267.507C266.561 270.026 275.65 278.129 276.898 283.63C277.197 284.958 278.326 287.446 280.054 290.538C282.404 294.705 285.031 298.733 287.92 302.599C287.922 302.607 287.922 302.616 287.92 302.625C290.639 306.318 293.672 309.805 296.989 313.054C297.268 313.434 297.51 313.752 297.707 314.056C300.916 318.988 306.263 323.946 314.281 328.388C322.3 332.831 323.658 353.044 323.658 353.044Z" fill="#354E4C"/>
<path opacity="0.56" d="M180.939 222.998C180.804 223.435 180.629 223.861 180.414 224.269C180.319 225.028 173.848 278.14 171.903 284.518C169.958 290.895 172.613 316.006 171.903 323.737C171.812 324.701 171.747 325.828 171.693 327.064C171.693 327.231 171.693 327.402 171.673 327.573C171.332 336.298 171.599 349.891 169.761 351.587C168.37 352.873 162.452 353.484 157.996 353.583C157.368 353.583 156.765 353.605 156.215 353.605C158.858 352.308 167.364 347.881 166.909 344.724C166.691 343.207 167.036 337.22 167.171 329.967C167.364 319.42 167.118 306.187 164.049 300.076C158.87 289.768 154.249 263.428 160.585 249.934C162.83 245.142 164.163 239.346 164.951 233.856C165.218 231.982 165.423 230.15 165.579 228.401C165.682 227.228 165.764 226.09 165.825 225.013C165.899 223.772 165.953 222.608 165.985 221.538C165.985 221.299 165.985 221.064 166.006 220.832C166.006 220.073 166.035 219.406 166.039 218.783C166.039 216.359 165.994 214.884 165.994 214.884L179.47 210.1C179.593 212.44 179.544 211.617 179.581 212.452C179.581 212.831 179.609 213.059 179.609 213.059C180.284 213.729 180.729 214.568 180.89 215.472C180.89 215.472 181.431 217.695 180.931 219.55C180.43 221.405 181.439 221.405 180.939 222.998Z" fill="#354E4C"/>
<path opacity="0.56" d="M153.864 236.144L143.072 262.131C142.637 260.37 142.251 258.716 141.902 257.233L153.864 236.144Z" fill="#354E4C"/>
<path opacity="0.56" d="M124.306 291.286C123.772 296.066 126.091 316.006 128.052 329.849C128.081 330.05 128.11 330.251 128.134 330.449C128.188 330.828 128.233 331.185 128.282 331.553C129.924 344.622 129.103 355.26 128.586 356.049C128.175 356.701 120.711 357.972 115.59 358.469C117.642 358.166 124.999 356.109 124.761 342.289C124.654 338.965 124.362 335.649 123.887 332.353C121.651 315.444 116.251 292.139 121.048 281.862C126.891 269.366 140.769 245.507 140.65 242.605C140.531 239.702 148.931 236.758 148.931 236.758L153.856 236.151V236.186C152.994 237.654 124.835 286.57 124.306 291.286Z" fill="#354E4C"/>
<path opacity="0.56" d="M180.939 222.998C180.804 223.435 180.629 223.86 180.414 224.269C179.244 226.496 175.768 230.718 164.951 233.833C160.163 235.158 155.256 236.084 150.289 236.603C149.834 236.656 149.383 236.705 148.931 236.747C132.107 238.477 118.975 236.132 111.49 233.791C120.551 233.947 119.406 231.894 124.761 230.165C130.116 228.435 137.72 229.683 144.606 229.144C151.492 228.605 165.124 223.624 171.813 220.798C174.441 219.734 176.823 218.21 178.826 216.31C179.474 215.702 180.034 215.018 180.492 214.276C180.695 214.656 180.834 215.063 180.902 215.483C180.902 215.483 181.444 217.706 180.943 219.561C180.442 221.416 181.44 221.405 180.939 222.998Z" fill="#354E4C"/>
<defs>
<linearGradient id="paint0_linear_217_18705" x1="180.415" y1="307.204" x2="180.415" y2="386.603" gradientUnits="userSpaceOnUse">
<stop stop-color="white"/>
<stop offset="0.38" stop-color="#99D0B5"/>
<stop offset="0.99" stop-color="#5F9D84"/>
</linearGradient>
<linearGradient id="paint1_linear_217_18705" x1="68.3243" y1="81.423" x2="136.527" y2="136.643" gradientUnits="userSpaceOnUse">
<stop offset="0.41" stop-color="#99D0B5"/>
<stop offset="1" stop-color="#45695E"/>
</linearGradient>
<linearGradient id="paint2_linear_217_18705" x1="37268.6" y1="16396.3" x2="51657.9" y2="16396.3" gradientUnits="userSpaceOnUse">
<stop stop-color="white"/>
<stop offset="0.38" stop-color="#99D0B5"/>
<stop offset="0.99" stop-color="#5F9D84"/>
</linearGradient>
<linearGradient id="paint3_linear_217_18705" x1="77.2328" y1="102.926" x2="117.971" y2="129.718" gradientUnits="userSpaceOnUse">
<stop stop-color="#45695E"/>
<stop offset="0.87" stop-color="#1B232A"/>
</linearGradient>
<linearGradient id="paint4_linear_217_18705" x1="2668.36" y1="2492.87" x2="2771.6" y2="2508.32" gradientUnits="userSpaceOnUse">
<stop stop-color="#45695E"/>
<stop offset="0.87" stop-color="#1B232A"/>
</linearGradient>
<linearGradient id="paint5_linear_217_18705" x1="22796.8" y1="29729.9" x2="31046.9" y2="29729.9" gradientUnits="userSpaceOnUse">
<stop stop-color="white"/>
<stop offset="0.38" stop-color="#99D0B5"/>
<stop offset="0.99" stop-color="#5F9D84"/>
</linearGradient>
<linearGradient id="paint6_linear_217_18705" x1="21247.6" y1="6986.42" x2="26768" y2="6986.42" gradientUnits="userSpaceOnUse">
<stop stop-color="white"/>
<stop offset="0.38" stop-color="#99D0B5"/>
<stop offset="0.99" stop-color="#5F9D84"/>
</linearGradient>
<linearGradient id="paint7_linear_217_18705" x1="48283.7" y1="39131.1" x2="67559.9" y2="54314.8" gradientUnits="userSpaceOnUse">
<stop stop-color="white"/>
<stop offset="0.38" stop-color="#99D0B5"/>
<stop offset="0.99" stop-color="#5F9D84"/>
</linearGradient>
<linearGradient id="paint8_linear_217_18705" x1="33702.5" y1="41180.1" x2="48822.3" y2="46641.7" gradientUnits="userSpaceOnUse">
<stop stop-color="white"/>
<stop offset="0.38" stop-color="#99D0B5"/>
<stop offset="0.99" stop-color="#5F9D84"/>
</linearGradient>
<linearGradient id="paint9_linear_217_18705" x1="147.253" y1="139.191" x2="150.365" y2="211.261" gradientUnits="userSpaceOnUse">
<stop stop-color="#F8BA67"/>
<stop offset="0.38" stop-color="#99D0B5"/>
<stop offset="0.99" stop-color="#518273"/>
</linearGradient>
<linearGradient id="paint10_linear_217_18705" x1="127.191" y1="142.522" x2="127.191" y2="220.787" gradientUnits="userSpaceOnUse">
<stop stop-color="#F8BA67"/>
<stop offset="0.38" stop-color="#99D0B5"/>
<stop offset="0.99" stop-color="#6FC29F"/>
</linearGradient>
<linearGradient id="paint11_linear_217_18705" x1="12545.5" y1="5316.33" x2="15419.3" y2="8637.46" gradientUnits="userSpaceOnUse">
<stop stop-color="white"/>
<stop offset="0.38" stop-color="#99D0B5"/>
<stop offset="0.99" stop-color="#5F9D84"/>
</linearGradient>
<linearGradient id="paint12_linear_217_18705" x1="60.274" y1="25.0597" x2="77.3376" y2="41.0344" gradientUnits="userSpaceOnUse">
<stop stop-color="#EE7671"/>
<stop offset="1" stop-color="#1B232A" stop-opacity="0"/>
</linearGradient>
<linearGradient id="paint13_linear_217_18705" x1="105.532" y1="59.1916" x2="111.606" y2="94.0816" gradientUnits="userSpaceOnUse">
<stop stop-color="white"/>
<stop offset="1" stop-color="#B4E4F4"/>
</linearGradient>
<linearGradient id="paint14_linear_217_18705" x1="33235.3" y1="33126.6" x2="39420" y2="32508.4" gradientUnits="userSpaceOnUse">
<stop stop-color="white"/>
<stop offset="0.38" stop-color="#99D0B5"/>
<stop offset="0.99" stop-color="#5F9D84"/>
</linearGradient>
<linearGradient id="paint15_linear_217_18705" x1="20797.1" y1="20455.2" x2="23244.6" y2="20211.1" gradientUnits="userSpaceOnUse">
<stop stop-color="white"/>
<stop offset="0.38" stop-color="#99D0B5"/>
<stop offset="0.99" stop-color="#5F9D84"/>
</linearGradient>
<linearGradient id="paint16_linear_217_18705" x1="22957.8" y1="43778.6" x2="28004.8" y2="44907.7" gradientUnits="userSpaceOnUse">
<stop stop-color="white"/>
<stop offset="0.38" stop-color="#99D0B5"/>
<stop offset="0.99" stop-color="#5F9D84"/>
</linearGradient>
<linearGradient id="paint17_linear_217_18705" x1="18348.8" y1="25715.5" x2="21909.4" y2="25933.1" gradientUnits="userSpaceOnUse">
<stop stop-color="white"/>
<stop offset="0.38" stop-color="#99D0B5"/>
<stop offset="0.99" stop-color="#5F9D84"/>
</linearGradient>
<linearGradient id="paint18_linear_217_18705" x1="9917.27" y1="5558.27" x2="10593.1" y2="6018.32" gradientUnits="userSpaceOnUse">
<stop stop-color="white"/>
<stop offset="0.38" stop-color="#99D0B5"/>
<stop offset="0.99" stop-color="#5F9D84"/>
</linearGradient>
<linearGradient id="paint19_linear_217_18705" x1="13177.1" y1="9499.06" x2="14979.4" y2="9705.52" gradientUnits="userSpaceOnUse">
<stop stop-color="white"/>
<stop offset="0.38" stop-color="#99D0B5"/>
<stop offset="0.99" stop-color="#5F9D84"/>
</linearGradient>
<linearGradient id="paint20_linear_217_18705" x1="22545.9" y1="32590.4" x2="22470.4" y2="36261.4" gradientUnits="userSpaceOnUse">
<stop stop-color="white"/>
<stop offset="0.38" stop-color="#99D0B5"/>
<stop offset="0.99" stop-color="#5F9D84"/>
</linearGradient>
<linearGradient id="paint21_linear_217_18705" x1="952.131" y1="1731.7" x2="1423.41" y2="1879.94" gradientUnits="userSpaceOnUse">
<stop stop-color="#45695E"/>
<stop offset="0.87" stop-color="#1B232A"/>
</linearGradient>
<linearGradient id="paint22_linear_217_18705" x1="3655.53" y1="390.314" x2="3771.85" y2="834.062" gradientUnits="userSpaceOnUse">
<stop stop-color="#45695E"/>
<stop offset="0.87" stop-color="#1B232A"/>
</linearGradient>
<linearGradient id="paint23_linear_217_18705" x1="116021" y1="86565.8" x2="116021" y2="118717" gradientUnits="userSpaceOnUse">
<stop stop-color="white"/>
<stop offset="0.38" stop-color="#99D0B5"/>
<stop offset="0.99" stop-color="#5F9D84"/>
</linearGradient>
<linearGradient id="paint24_linear_217_18705" x1="20720.6" y1="34628.6" x2="20527.3" y2="39910.2" gradientUnits="userSpaceOnUse">
<stop stop-color="white"/>
<stop offset="0.38" stop-color="#99D0B5"/>
<stop offset="0.99" stop-color="#5F9D84"/>
</linearGradient>
<linearGradient id="paint25_linear_217_18705" x1="17808" y1="45996.6" x2="12401.7" y2="57815.3" gradientUnits="userSpaceOnUse">
<stop stop-color="white"/>
<stop offset="0.38" stop-color="#99D0B5"/>
<stop offset="0.99" stop-color="#5F9D84"/>
</linearGradient>
</defs>
</svg>
