<svg width="20" height="20" viewBox="0 0 20 20" fill="none" xmlns="http://www.w3.org/2000/svg">
<path d="M19.1667 12.6826C18.825 12.6826 18.5417 12.966 18.5417 13.3076C18.5417 15.7743 16.825 17.8409 14.5167 18.3826L14.7417 18.0076C14.9167 17.7076 14.825 17.3243 14.525 17.1493C14.2334 16.9743 13.8417 17.066 13.6667 17.366L12.7917 18.8243C12.675 19.016 12.675 19.2576 12.7834 19.4493C12.8917 19.6493 13.1 19.7659 13.325 19.7659C16.8834 19.7659 19.7834 16.866 19.7834 13.3076C19.7917 12.966 19.5084 12.6826 19.1667 12.6826Z" fill="#777777"/>
<path d="M6.66683 0.182617C3.1085 0.182617 0.208496 3.08262 0.208496 6.64095C0.208496 6.98262 0.491829 7.26595 0.833496 7.26595C1.17516 7.26595 1.4585 6.98262 1.4585 6.64095C1.4585 4.17428 3.17516 2.10762 5.4835 1.56595L5.2585 1.94095C5.0835 2.24095 5.17516 2.62428 5.47516 2.79928C5.76683 2.97428 6.1585 2.88262 6.3335 2.58262L7.2085 1.12428C7.31683 0.932617 7.32516 0.699284 7.2085 0.499284C7.10016 0.307617 6.89183 0.182617 6.66683 0.182617Z" fill="#5ED5A8"/>
<path d="M17.9166 7.22467C17.9166 9.79134 16.05 11.908 13.6083 12.2997C13.6083 12.2913 13.6083 12.2913 13.6083 12.283C13.3666 9.17467 10.85 6.64134 7.69995 6.39134C8.09162 3.94967 10.2083 2.08301 12.775 2.08301C15.6166 2.08301 17.9166 4.38301 17.9166 7.22467Z" fill="#777777"/>
<path d="M8.17518 11.8333C8.17518 11.7083 8.03351 11.5166 7.85851 11.5166H6.14185V12.1416H7.85851C8.03351 12.1499 8.17518 12.0083 8.17518 11.8333Z" fill="#5ED5A8"/>
<path d="M8.19185 13.4004H7.85851H6.14185V14.0254H8.20018C8.46685 14.0254 8.65018 13.8587 8.65018 13.7087C8.65018 13.5587 8.45851 13.4004 8.19185 13.4004Z" fill="#5ED5A8"/>
<path d="M12.3583 12.375C12.1666 9.85 10.1499 7.83333 7.62492 7.64167C7.49158 7.63333 7.36659 7.625 7.22492 7.625C4.38325 7.625 2.08325 9.925 2.08325 12.775C2.08325 15.6167 4.38325 17.9167 7.22492 17.9167C10.0666 17.9167 12.3749 15.6167 12.3749 12.775C12.3749 12.6333 12.3666 12.5083 12.3583 12.375ZM8.19159 15.275H7.64159V15.5917C7.64159 15.9333 7.35825 16.2167 7.01659 16.2167C6.67492 16.2167 6.39159 15.9333 6.39159 15.5917V15.275H5.51659C5.17492 15.275 4.89159 14.9917 4.89159 14.65V12.775V10.9C4.89159 10.5583 5.17492 10.275 5.51659 10.275H6.39159V9.95833C6.39159 9.61667 6.67492 9.33333 7.01659 9.33333C7.35825 9.33333 7.64159 9.61667 7.64159 9.95833V10.275H7.85825C8.69159 10.275 9.42492 11.0083 9.42492 11.8417C9.42492 12.0833 9.36658 12.3083 9.26658 12.5167C9.64992 12.8 9.89158 13.2333 9.89158 13.7167C9.89158 14.575 9.13325 15.275 8.19159 15.275Z" fill="#5ED5A8"/>
</svg>
