<svg width="23" height="17" viewBox="0 0 23 17" fill="none" xmlns="http://www.w3.org/2000/svg">
<path d="M7.03965 0H5.85534C4.04472 0 3.31592 0.690225 3.31592 2.4388V16.1053H9.57908V2.4388C9.56769 0.690225 8.83888 0 7.03965 0Z" fill="#777777"/>
<path d="M16.8817 5.36816H15.6974C13.8868 5.36816 13.158 6.09588 13.158 7.89729V16.105H19.4211V7.89729C19.4211 6.09588 18.6809 5.36816 16.8817 5.36816Z" fill="#5ED5A8"/>
<path d="M1.47041 15.2109H22.1612C22.6198 15.2109 23 15.6166 23 16.1057C23 16.5948 22.6198 17.0004 22.1612 17.0004H1.47041C1.01185 17.0004 0.631592 16.5948 0.631592 16.0937C0.631592 15.5927 1.01185 15.2109 1.47041 15.2109Z" fill="#777777"/>
</svg>
