<svg width="21" height="20" viewBox="0 0 21 20" fill="none" xmlns="http://www.w3.org/2000/svg">
<path d="M11.2292 1.59375L11.2292 7.9011L9.65503 7.9011L9.65503 1.59375C9.65503 1.16346 10.0119 0.806641 10.4421 0.806641C10.8724 0.806641 11.2292 1.16346 11.2292 1.59375Z" fill="#777777"/>
<path fill-rule="evenodd" clip-rule="evenodd" d="M20.0975 7.7959C20.6012 7.7959 21 8.1947 21 8.69845C21 14.8694 16.6762 19.1932 10.4948 19.1932C4.31334 19.1932 1.5977e-06 14.8799 1.8679e-06 8.69845C1.88992e-06 8.1947 0.409298 7.7959 0.90255 7.7959L9.65541 7.7959L9.65541 11.6372L8.00774 10C7.70339 9.69569 7.19964 9.69569 6.89529 10C6.73787 10.1575 6.66441 10.3569 6.66441 10.5563C6.66441 10.7557 6.73787 10.9551 6.89529 11.1125L9.8863 14.093C10.1906 14.4078 10.6839 14.4078 10.9882 14.093L13.9793 11.1125C14.2836 10.8081 14.2836 10.3044 13.9793 10C13.6749 9.69569 13.1712 9.69569 12.8668 10L11.2296 11.6372L11.2296 7.7959L20.0975 7.7959Z" fill="#5ED5A8"/>
</svg>
