<svg width="20" height="20" viewBox="0 0 20 20" fill="none" xmlns="http://www.w3.org/2000/svg">
<path d="M9.69996 0.204028L7.28996 5.81558H4.87996C4.47996 5.81558 4.08996 5.84559 3.70996 5.92561L4.70996 3.52495L4.74996 3.43492L4.80996 3.27488C4.83996 3.20486 4.85996 3.14484 4.88996 3.09483C6.04996 0.404083 7.34996 -0.436149 9.69996 0.204028Z" fill="#777777"/>
<path d="M16.4901 6.08522L16.4701 6.07521C15.8701 5.90517 15.2601 5.81514 14.6401 5.81514H8.38013L10.6301 0.583691L10.6601 0.513672C10.8001 0.563686 10.9501 0.633705 11.1001 0.683719L13.3101 1.61398C14.5401 2.12412 15.4001 2.65427 15.9301 3.29444C16.0201 3.41448 16.1001 3.52451 16.1801 3.65454C16.2701 3.79458 16.3401 3.93462 16.3801 4.08466C16.4201 4.17469 16.4501 4.25471 16.4701 4.34473C16.6201 4.85488 16.6301 5.43504 16.4901 6.08522Z" fill="#777777"/>
<path d="M10.28 15.6581H10.53C10.83 15.6581 11.08 15.3881 11.08 15.0581C11.08 14.6381 10.96 14.5781 10.7 14.4781L10.28 14.3281V15.6581Z" fill="#5ED5A8"/>
<path d="M16.05 7.51646C15.6 7.38643 15.13 7.31641 14.64 7.31641H4.88C4.2 7.31641 3.56 7.44644 2.96 7.70651C1.22 8.45672 0 10.1872 0 12.1978V14.1483C0 14.3884 0.02 14.6184 0.05 14.8585C0.27 18.0394 1.97 19.7399 5.15 19.9499C5.38 19.9799 5.61 19.9999 5.86 19.9999H13.66C17.36 19.9999 19.31 18.2394 19.5 14.7385C19.51 14.5484 19.52 14.3484 19.52 14.1483V12.1978C19.52 9.98715 18.05 8.12663 16.05 7.51646ZM11.04 13.4981C11.5 13.6582 12.12 13.9983 12.12 15.0586C12.12 15.9688 11.41 16.699 10.53 16.699H10.28V16.9191C10.28 17.2092 10.05 17.4392 9.76 17.4392C9.47 17.4392 9.24 17.2092 9.24 16.9191V16.699H9.15C8.19 16.699 7.4 15.8888 7.4 14.8885C7.4 14.5984 7.63 14.3684 7.92 14.3684C8.21 14.3684 8.44 14.5984 8.44 14.8885C8.44 15.3086 8.76 15.6587 9.15 15.6587H9.24V13.9683L8.48 13.6982C8.02 13.5381 7.4 13.198 7.4 12.1377C7.4 11.2275 8.11 10.4973 8.99 10.4973H9.24V10.2772C9.24 9.98715 9.47 9.75708 9.76 9.75708C10.05 9.75708 10.28 9.98715 10.28 10.2772V10.4973H10.37C11.33 10.4973 12.12 11.3075 12.12 12.3078C12.12 12.5979 11.89 12.8279 11.6 12.8279C11.31 12.8279 11.08 12.5979 11.08 12.3078C11.08 11.8877 10.76 11.5376 10.37 11.5376H10.28V13.228L11.04 13.4981Z" fill="#5ED5A8"/>
<path d="M8.43994 12.1371C8.43994 12.5571 8.55994 12.6171 8.81994 12.7171L9.23994 12.8671V11.5371H8.98994C8.67994 11.5371 8.43994 11.8071 8.43994 12.1371Z" fill="#5ED5A8"/>
</svg>
