<svg width="15" height="20" viewBox="0 0 15 20" fill="none" xmlns="http://www.w3.org/2000/svg">
<path d="M7.04015 0C4.42009 0 2.29004 2.13005 2.29004 4.75011C2.29004 7.32018 4.30009 9.40023 6.92015 9.49023C7.00015 9.48023 7.08016 9.48023 7.14016 9.49023C7.16016 9.49023 7.17016 9.49023 7.19016 9.49023C7.20016 9.49023 7.20016 9.49023 7.21016 9.49023C9.77022 9.40023 11.7803 7.32018 11.7903 4.75011C11.7903 2.13005 9.66022 0 7.04015 0Z" fill="#777777"/>
<path fill-rule="evenodd" clip-rule="evenodd" d="M1.97005 12.1489C4.78012 10.2889 9.33023 10.2889 12.1203 12.1489C13.3803 12.989 14.0703 14.129 14.0803 15.359C14.0803 16.599 13.3803 17.7391 12.1203 18.5891C10.7203 19.5291 8.88021 19.9991 7.04017 19.9991C5.20013 19.9991 3.36008 19.5291 1.96005 18.5891C0.700017 17.7491 0 16.609 0 15.379C0 14.149 0.700017 12.999 1.97005 12.1489ZM7.79019 14.6286H9.04022C9.45023 14.6286 9.79024 14.9686 9.79024 15.3786C9.79024 15.7886 9.45023 16.1286 9.04022 16.1286H7.79019V17.3786C7.79019 17.7887 7.45018 18.1287 7.04017 18.1287C6.63016 18.1287 6.29015 17.7887 6.29015 17.3786V16.1286H5.04012C4.63011 16.1286 4.2901 15.7886 4.2901 15.3786C4.2901 14.9686 4.63011 14.6286 5.04012 14.6286H6.29015V13.3786C6.29015 12.9685 6.63016 12.6285 7.04017 12.6285C7.45018 12.6285 7.79019 12.9685 7.79019 13.3786V14.6286Z" fill="#5ED5A8"/>
</svg>
